<?xml version="1.0" encoding="UTF-8" standalone="no"?>
<!-- Created with Inkscape (http://www.inkscape.org/) -->

<svg
   version="1.1"
   id="svg1"
   width="413.98596"
   height="511.49924"
   viewBox="0 0 413.98596 511.49924"
   xmlns="http://www.w3.org/2000/svg"
   xmlns:svg="http://www.w3.org/2000/svg">
  <defs
     id="defs1" />
  <g
     id="g1"
     transform="translate(-48.985619,-0.5)">
    <path
       style="fill:#000000"
       d="M 57.423711,509.98065 C 52.117077,507.35386 49,501.91711 49,495.28816 49,489.54468 51.808794,486 56.359906,486 60.077777,486 64,490.08365 64,493.95455 V 497 H 256.05444 448.10887 L 447.80444,450.25 447.5,403.5 l -2.82357,-8 C 438.14996,377.00858 425.94162,362.57823 409.98191,354.49083 404.41725,351.671 381.98339,343 380.25252,343 379.29208,343 379,347.53673 379,362.45469 v 19.45468 l 3.75,0.67179 c 10.53466,1.88721 20.91623,9.96591 25.93162,20.17941 L 411.5,408.5 l 0.29766,35.88482 0.29765,35.88482 -2.22197,2.36518 C 407.86909,484.76824 406.80366,485 399,485 c -7.75021,0 -8.87786,-0.24108 -10.82569,-2.31445 C 386.97844,481.4126 386,479.14215 386,477.64009 386,473.92222 390.08365,470 393.95455,470 H 397 v -28.53984 c 0,-26.12057 -0.16177,-28.85434 -1.90842,-32.25 C 390.55937,400.39907 383.99193,397 371.5,397 c -12.49193,0 -19.05937,3.39907 -23.59158,12.21016 -1.74665,3.39566 -1.90842,6.12943 -1.90842,32.25 V 470 h 3.04545 c 6.72373,0 10.39816,8.35572 5.6401,12.82569 C 352.6835,484.70651 351.22224,485 343.85986,485 c -7.6563,0 -8.73442,-0.23758 -10.7332,-2.36518 l -2.22197,-2.36518 0.29765,-35.88482 L 331.5,408.5 l 2.81838,-5.73943 c 5.01539,-10.2135 15.39696,-18.2922 25.93162,-20.17941 l 3.75,-0.67179 v -22.71996 -22.71997 l -5.05758,-1.79629 -5.05758,-1.7963 -10.69242,7.90864 c -19.80686,14.65012 -30.20509,20.49619 -45.50076,25.58134 -14.91131,4.95737 -22.85734,6.12467 -41.69166,6.12467 -23.93952,0 -38.43872,-3.25964 -58.30706,-13.10831 -9.89073,-4.9028 -13.59424,-7.28759 -28.90801,-18.6146 -15.69203,-11.60681 -14.79642,-12.85581 -14.73473,20.5488 l 0.0502,27.18261 5.96073,2.82431 c 21.3731,10.127 20.8684,41.70614 -0.83689,52.36474 -7.65018,3.7567 -18.34969,3.98087 -25.35153,0.53115 -18.7337,-9.22984 -23.0734,-33.20162 -8.6737,-47.91209 2.25684,-2.30554 6.28531,-5.13055 8.95216,-6.2778 L 139,387.9444 v -24.07919 c 0,-22.53927 -0.11192,-24.03329 -1.75,-23.36156 -0.9625,0.39469 -8.06299,3.08483 -15.77886,5.97808 -17.06437,6.3987 -22.153699,8.92518 -30.272254,15.02801 -10.862651,8.1656 -18.746153,19.40055 -23.850781,33.99026 -2.790741,7.97631 -2.799947,8.08884 -3.108708,38 -0.184053,17.83009 -0.735887,31.08077 -1.360324,32.66421 -2.070453,5.25023 -10.194509,5.85194 -12.818271,0.9494 -1.629409,-3.04458 -1.327957,-55.76014 0.37235,-65.11361 4.451588,-24.4884 19.240061,-45.76262 40.886192,-58.81755 3.025421,-1.82465 28.378746,-11.89637 56.340716,-22.38161 27.96196,-10.48523 51.62744,-19.74958 52.58994,-20.58743 1.54682,-1.34652 1.75,-3.63748 1.75,-19.7324 V 262.272 l -3.87388,-2.6846 c -6.48025,-4.49082 -18.59933,-17.65933 -24.02406,-26.1044 -5.95483,-9.27031 -10.59735,-20.6469 -13.01876,-31.90271 l -1.7097,-7.94744 -5.46455,-1.09116 c -17.66477,-3.52728 -29.578,-20.96816 -26.72963,-39.13198 2.13864,-13.63796 11.77902,-24.28155 25.31044,-27.94434 l 6.4258,-1.73938 0.29217,-40.136719 0.29217,-40.136717 3.19803,-6.476277 c 1.75892,-3.561952 5.35892,-8.575236 8,-11.14063 6.48946,-6.30348 29.40878,-19.9655731 38.47772,-22.9363724 C 216.40531,0.53101857 217.01067,0.5 256,0.5 c 39.13451,0 39.5687,0.0224989 46.92463,2.4315501 9.15065,2.9968196 31.82031,16.5235059 38.37734,22.8992439 2.64108,2.568063 6.24108,7.583531 8,11.145483 l 3.19803,6.476277 0.29242,40.215098 0.29243,40.215098 5.57643,1.62111 C 374.08828,129.98861 384,143.09126 384,159 c 0,16.20564 -10.18705,29.27376 -25.96821,33.31245 l -5.41972,1.38701 -1.70253,7.91413 c -2.41455,11.22391 -7.06232,22.60774 -13.0116,31.86941 -5.42473,8.44507 -17.54381,21.61358 -24.02406,26.1044 L 310,262.272 v 18.20901 c 0,16.10549 0.20216,18.38179 1.75,19.70463 0.9625,0.82259 23.125,9.48362 49.25,19.24673 26.125,9.76311 50.65,19.26254 54.5,21.10984 18.72443,8.98432 34.80909,27.01051 42.29623,47.40167 4.69905,12.79785 5.13156,18.39747 5.16888,66.91997 0.0345,44.81762 0.009,45.41063 -2.1492,49.24991 -1.39197,2.47667 -3.68255,4.61145 -6.31573,5.88615 -4.08828,1.9791 -6.17172,2.00008 -198.5659,1.9993 -192.990753,-7.8e-4 -194.464543,-0.0158 -198.510569,-2.01856 z m 97.361669,-80.82782 c 6.12019,-4.35796 7.96664,-13.28281 3.96462,-19.163 -3.63868,-5.34633 -7.11755,-7.37445 -12.64954,-7.37445 -9.3481,0 -16.57785,9.18428 -14.19519,18.03281 1.13157,4.20234 4.98896,8.56437 9.09473,10.28453 3.63738,1.52393 10.36557,0.65522 13.78538,-1.77989 z m 120.82925,-72.70078 c 10.50094,-1.83121 23.87038,-6.15808 32.60788,-10.55318 6.02347,-3.02989 20.14249,-12.30295 26.1411,-17.16888 l 2.8636,-2.32289 -15.7774,-5.87792 C 296.84504,311.3626 295.05659,309.009 295.02196,285.75 295.00988,277.6375 294.8719,271 294.71534,271 c -0.15656,0 -2.87768,0.91137 -6.04693,2.02527 -22.85638,8.03338 -46.40977,7.4534 -70.3471,-1.73221 -1.05796,-0.40598 -1.32569,2.45414 -1.34327,14.34995 -0.018,12.20341 -0.34722,15.57295 -1.84302,18.86557 -2.52809,5.56492 -7.70338,9.77404 -15.77033,12.82619 -3.77558,1.42849 -10.85592,4.10512 -15.7341,5.94807 l -8.86941,3.3508 6.86941,5.02619 c 19.93378,14.58509 34.34585,21.19033 53.96649,24.73354 10.65762,1.92462 29.16188,1.95175 40.01755,0.0587 z m -6.26282,-93.95417 c 31.56891,-5.50516 56.5304,-27.76349 65.79434,-58.66925 1.98729,-6.62987 2.23572,-10.06984 2.60555,-36.07863 L 338.16052,139 h -47.76581 c -47.66596,0 -47.77065,-0.005 -50.08026,-2.17431 -3.27188,-3.07378 -3.12379,-8.0439 0.32041,-10.75311 2.58138,-2.03052 3.59616,-2.07258 50,-2.07258 L 338,124 V 86.86602 c 0,-25.289061 -0.37019,-38.369573 -1.16056,-41.007577 -1.83991,-6.141067 -7.12296,-11.301532 -18.63755,-18.20508 -14.18312,-8.503458 -17.70603,-10.195869 -24.00111,-11.530156 -7.15452,-1.516451 -69.24704,-1.516451 -76.40156,0 -6.37948,1.352176 -10.0008,3.102015 -24.10917,11.649662 C 182.02867,34.837992 176.98846,39.75745 175.16056,45.858443 174.37019,48.496447 174,61.576959 174,86.86602 V 124 h 21.44424 c 21.04566,0 21.49483,0.0435 24.16666,2.34174 3.53085,3.03711 3.74104,8.14511 0.44498,10.81409 C 217.99704,138.82298 215.66966,139 195.80896,139 h -21.96948 l 0.40882,28.75 c 0.36983,26.00879 0.61826,29.44876 2.60555,36.07863 9.22444,30.77399 33.99732,52.97818 65.48029,58.69065 9.72995,1.76546 16.80316,1.75986 27.01767,-0.0214 z m -26.51163,-152.5197 c -4.54462,-2.40085 -7.52886,-6.10832 -8.84195,-10.98476 -0.78812,-2.926845 -1.60849,-3.866035 -3.75339,-4.297031 -4.09254,-0.822353 -9.37046,-4.749961 -11.69077,-8.699787 C 216.80376,83.017078 216.5,80.799377 216.5,71 c 0,-9.799377 0.30376,-12.017078 2.05407,-14.996602 2.32031,-3.949826 7.59823,-7.877434 11.69077,-8.699787 2.2026,-0.442589 2.96393,-1.366637 3.85389,-4.677578 1.38421,-5.149679 7.58788,-11.289014 12.30071,-12.173146 1.87727,-0.352178 8.10444,-0.48565 13.83817,-0.296605 9.60186,0.31658 10.71355,0.564049 14.08024,3.134366 3.98531,3.042605 5.712,5.667248 6.61535,10.055609 0.45386,2.20479 1.47221,3.150954 4.51853,4.198229 9.63239,3.31146 12.81807,8.294906 13.36824,20.91231 0.66143,15.168875 -2.49639,21.790591 -12.10012,25.373101 -4.33983,1.618902 -5.29325,2.429871 -5.80639,4.938847 -0.90383,4.419226 -4.55697,9.008746 -8.95784,11.253896 -5.53651,2.82452 -23.73731,2.79673 -29.11544,-0.0445 z M 266.39301,95.418213 C 266.72686,94.548229 267,91.65589 267,88.990793 267,82.523075 269.95442,80 277.52787,80 283.66392,80 284,79.53265 284,71 284,62.426192 283.68498,62 277.34756,62 270.11817,62 267,59.175581 267,52.627242 267,45.138632 266.82733,45 257.5,45 c -9.30022,0 -9.5,0.157113 -9.5,7.471004 0,6.647216 -2.41152,8.908345 -10.15803,9.524532 L 231.5,62.5 231.19659,68.969147 C 230.70833,79.379834 231.06634,80 237.56451,80 244.8887,80 248,82.79445 248,89.372758 248,96.861368 248.17267,97 257.5,97 c 6.63328,0 8.40709,-0.315506 8.89301,-1.581787 z M 159,158.5 c 0,-10.725 -0.23945,-19.5 -0.53212,-19.5 -1.83796,0 -8.41701,3.53271 -10.80716,5.80305 -9.81732,9.32521 -7.33682,25.56258 4.83928,31.67791 6.6123,3.32096 6.5,3.6316 6.5,-17.98096 z m 199.78984,17.60641 c 7.37889,-3.76603 10.59364,-9.74309 10.02695,-18.64273 -0.44273,-6.95288 -3.45523,-12.05269 -9.18262,-15.54508 C 352.99249,137.8687 353,137.84937 353,159 c 0,12.48528 0.35654,19 1.03984,19 0.57191,0 2.70941,-0.85212 4.75,-1.89359 z"
       id="path1" />
  </g>
</svg>
