<?xml version="1.0" encoding="UTF-8" standalone="no"?>
<!-- Created with Inkscape (http://www.inkscape.org/) -->

<svg
   version="1.1"
   id="svg1"
   width="439.94876"
   height="511.92285"
   viewBox="0 0 439.94876 511.92285"
   xmlns="http://www.w3.org/2000/svg"
   xmlns:svg="http://www.w3.org/2000/svg">
  <defs
     id="defs1" />
  <g
     id="g1"
     transform="translate(-36.00906,-0.15595885)">
    <path
       style="fill:#000000"
       d="M 114.63408,510.41354 C 98.626863,506.53904 85.005511,494.05837 79.374368,478.10657 L 77.042184,471.5 77.021092,375.34456 77,279.18912 l -7.843953,0.53764 c -5.870811,0.40239 -9.133467,0.10933 -12.970239,-1.16504 -6.676797,-2.21768 -14.790933,-9.5185 -17.828476,-16.04144 L 36.019538,257.5 36.009769,188.31538 C 35.99921,113.53697 36.035318,112.94544 41.499342,98.384574 53.846464,65.481205 87.615994,41.372971 122.00604,40.910445 l 8.86666,-0.119252 2.68464,-3.873929 c 4.45988,-6.435614 18.63546,-19.350493 26.00909,-23.695983 23.5841,-13.89878834 49.76968,-16.7886446 75.07448,-8.2852652 9.75264,3.277257 21.40655,9.7376212 27.94559,15.4916832 l 4.70057,4.136283 6.60646,-1.724345 c 19.48609,-5.086038 40.51475,2.248259 52.81034,18.418998 l 2.09756,2.758635 6.84928,-1.613585 c 18.39022,-4.332448 38.7161,3.041221 50.42322,18.292154 6.44256,8.392764 9.10399,15.715244 9.70061,26.689693 0.84799,15.598228 -3.38124,27.212418 -13.89701,38.163488 L 376,131.66986 V 146.33493 161 l 27.75,0.0148 c 21.21302,0.0113 29.25926,0.37054 34.15693,1.525 16.52442,3.89509 29.97266,16.07637 35.7187,32.35365 l 2.33219,6.60657 v 95 95 l -2.33219,6.60657 c -5.74604,16.27728 -19.19428,28.45856 -35.7187,32.35365 -4.89767,1.15446 -12.94391,1.5137 -34.15693,1.525 L 376,432 l -0.0211,19.75 c -0.0193,18.10158 -0.21575,20.30141 -2.35328,26.35657 -5.74604,16.27728 -19.19428,28.45856 -35.7187,32.35365 -9.27859,2.18712 -214.22111,2.14427 -223.27285,-0.0467 z m 221.34598,-20.09609 c 6.08089,-1.96391 13.47318,-8.19511 16.83392,-14.18986 L 355.12797,472 H 338.96398 322.8 l -3.4,-3.4 c -3.6379,-3.6379 -4.2381,-6.66647 -2.20531,-11.12794 C 319.36471,452.70936 322.37944,452 340.45034,452 H 357 V 296.25 140.5 h -11 -11 l -0.01,38.5 c -0.01,38.42148 -0.0146,38.51041 -2.3855,43.60217 -2.79123,5.99448 -8.06794,11.57317 -13.63129,14.41138 L 315,239.04065 v 83.0566 83.0566 l -2.92308,2.92307 C 309.91282,410.24103 308.20513,411 305.5,411 c -2.70513,0 -4.41282,-0.75897 -6.57692,-2.92308 L 296,405.15385 v -83.0566 -83.0566 l -3.97344,-2.0271 c -5.08973,-2.59659 -10.40268,-7.92066 -13.26232,-13.29011 -2.1491,-4.03529 -2.27442,-5.58221 -2.81313,-34.72344 -0.51729,-27.98237 -0.7345,-30.87906 -2.63141,-35.09215 -3.38732,-7.5233 -11.06924,-11.405 -24.88119,-12.57254 l -7.36838,-0.62285 -6.28506,5.18456 c -22.83124,18.83354 -54.77781,18.86288 -77.37263,0.0711 -3.25184,-2.70452 -6.58821,-4.92873 -7.41416,-4.9427 -0.82594,-0.014 -2.53363,1.91979 -3.79486,4.29723 -7.88167,14.8571 -25.3402,28.15631 -42.72001,32.5424 L 96.5,179.62739 96.246429,315.8137 95.992858,452 h 75.956522 c 56.75972,0 76.61919,0.30194 78.57856,1.19469 1.44213,0.65707 3.2633,2.43473 4.04706,3.95034 2.32216,4.49057 1.76649,7.71348 -1.975,11.45497 l -3.4,3.4 H 173.57968 97.959352 l 1.970534,3.86257 c 2.792064,5.47289 11.375454,12.85945 16.930364,14.56967 3.88896,1.19731 21.5715,1.43973 109.27492,1.49811 95.44222,0.0635 105.09287,-0.0782 109.84489,-1.6129 z M 280.74998,469.91989 C 278.45267,468.58183 276,463.75162 276,460.56544 c 0,-1.39364 1.30395,-3.99326 2.89766,-5.77694 2.39795,-2.68376 3.62279,-3.24305 7.10234,-3.24305 3.47955,0 4.70439,0.55929 7.10234,3.24305 1.59371,1.78368 2.89766,4.3833 2.89766,5.77694 0,3.31506 -2.51932,8.10694 -4.94461,9.40492 -2.44048,1.3061 -8.02326,1.27876 -10.30541,-0.0505 z M 138.92308,408.07692 136,405.15385 v -99.14267 c 0,-69.10653 0.32734,-99.75431 1.08049,-101.16158 1.75407,-3.27752 7.43386,-5.16498 11.50216,-3.82232 6.86392,2.2653 6.41735,-5.02559 6.41735,104.77215 v 99.35442 l -2.92308,2.92307 C 149.91282,410.24103 148.20513,411 145.5,411 c -2.70513,0 -4.41282,-0.75897 -6.57692,-2.92308 z m 80,0 L 216,405.15385 v -99.14267 c 0,-69.10653 0.32734,-99.75431 1.08049,-101.16158 1.75407,-3.27752 7.43386,-5.16498 11.50216,-3.82232 6.86392,2.2653 6.41735,-5.02559 6.41735,104.77215 v 99.35442 l -2.92308,2.92307 C 229.91282,410.24103 228.20513,411 225.5,411 c -2.70513,0 -4.41282,-0.75897 -6.57692,-2.92308 z m 216.83883,2.40114 c 6.79806,-2.0188 15.15558,-9.62584 18.35629,-16.70795 L 456.5,388.5 v -92 -92 l -2.3818,-5.27011 C 450.91749,192.14778 442.55997,184.54074 435.76191,182.52194 431.71981,181.32156 424.86503,181 403.3185,181 H 376 v 9.95478 9.95477 l 27.58796,0.29523 27.58795,0.29522 2.41205,2.80576 L 436,207.11153 V 296.5 385.88847 l -2.41204,2.80577 -2.41205,2.80576 -27.58795,0.29522 L 376,392.09045 V 402.04522 412 h 27.3185 c 21.54653,0 28.40131,-0.32156 32.44341,-1.52194 z M 417,296.5 V 221 H 396.5 376 V 296.5 372 H 396.5 417 Z M 72.330697,257.95451 c 1.430227,-1.12501 3.063404,-3.71251 3.629281,-5.75 0.627387,-2.25895 1.031044,-19.63148 1.034445,-44.52025 0.0037,-27.31484 0.362979,-41.48355 1.086068,-42.83466 C 79.474889,162.24415 84.891771,160 89.78638,160 c 2.11784,0 6.294793,-0.71792 9.282119,-1.59538 C 112.06462,154.58731 122.26497,146.48201 129.78123,134 c 2.30489,-3.82766 5.65664,-7.73339 8.15257,-9.5 3.77264,-2.67027 5.02585,-2.99674 11.40234,-2.9703 8.16337,0.0338 11.98404,1.65392 20.16386,8.55005 2.75,2.31844 7.475,5.38644 10.5,6.81779 4.83719,2.28884 6.76536,2.60246 16,2.60246 9.21645,0 11.17233,-0.31673 16,-2.59096 3.025,-1.42503 7.975,-4.72414 11,-7.33136 8.93587,-7.70173 10.03594,-8.09157 22.5,-7.97335 24.70297,0.23429 39.53639,8.55542 47.05345,26.39567 1.67742,3.98102 1.95667,8.05604 2.42132,35.33365 l 0.52523,30.83366 3.26578,2.91634 c 4.41309,3.94091 9.05582,3.9407 13.46844,-6e-4 l 3.26578,-2.91695 0.5,-46.67076 0.5,-46.67075 2.80576,-2.4123 c 3.48096,-2.9928 7.0289,-3.0491 13.31712,-0.21133 7.53382,3.39988 19.06065,3.19107 26.53766,-0.48074 10.86543,-5.3358 17.01593,-14.97705 17.01593,-26.673414 0,-9.261294 -2.85759,-15.640735 -9.88162,-22.060307 -9.78031,-8.938655 -21.81313,-10.310766 -34.82615,-3.971253 -6.25341,3.046458 -6.77765,3.139387 -10.27909,1.822129 -2.95532,-1.111806 -4.33885,-2.610602 -6.95187,-7.531068 -6.15773,-11.595335 -16.61276,-18.373445 -28.16924,-18.262414 -4.39275,0.0422 -6.60598,0.670168 -15.75127,4.46914 -2.52219,1.047722 -5.20267,1.481552 -6.75175,1.092757 -1.41294,-0.354625 -6.05569,-3.827656 -10.31723,-7.717845 C 240.41778,27.175516 222.51764,20 206.13013,20 c -22.80104,0 -45.65566,12.483604 -58.65605,32.038991 -2.53088,3.80698 -5.1354,7.260676 -5.78784,7.674879 -0.65243,0.414204 -6.81124,0.810976 -13.68624,0.881717 -9.46819,0.09742 -14.42943,0.66005 -20.45493,2.319678 C 83.416634,69.561053 65.276403,87.49488 57.878881,112.01633 55.65561,119.38608 55.615379,120.48184 55.23602,184 c -0.268817,45.00956 -0.05323,65.61695 0.713447,68.19635 2.156713,7.25602 10.671837,10.24917 16.38123,5.75816 z"
       id="path1" />
  </g>
</svg>
