<?xml version="1.0" encoding="UTF-8" standalone="no"?>
<!-- Created with Inkscape (http://www.inkscape.org/) -->

<svg
   version="1.1"
   id="svg1"
   width="545.86481"
   height="424.48431"
   viewBox="0 0 545.86481 424.48431"
   xmlns="http://www.w3.org/2000/svg"
   xmlns:svg="http://www.w3.org/2000/svg">
  <defs
     id="defs1" />
  <g
     id="g1"
     transform="translate(-0.16572137,-60.861538)">
    <path
       style="fill:#000000"
       d="M 44.266664,482.72452 C 32.728527,478.77748 26.861355,475.02928 17.587952,465.68101 0.46689271,448.42172 -4.1847486,429.41787 4.2956622,411.37657 c 3.6587214,-7.7836 10.9516838,-15.05555 21.6628508,-21.60044 39.034757,-23.85159 74.0236,-52.42425 118.086407,-96.43196 33.84835,-33.80602 56.47299,-59.04867 88.55461,-98.8017 l 14.73424,-18.25752 -2.72138,-6.73745 c -2.37183,-5.87208 -2.66466,-7.9237 -2.27982,-15.97299 0.71362,-14.92586 1.86611,-16.55693 34.85863,-49.33378 25.99088,-25.820986 28.93985,-28.418864 34.64847,-30.523397 3.80751,-1.403669 9.00555,-2.351391 13.33542,-2.431349 7.49251,-0.138361 9.95911,0.322856 16.42515,3.071261 l 4.00026,1.700319 6.16407,-5.87952 c 3.39023,-3.233736 7.68628,-6.666689 9.54676,-7.628784 4.14238,-2.142104 11.97285,-2.26384 16.58957,-0.257908 4.37356,1.900277 40.82477,38.578868 42.31413,42.578078 2.28119,6.12541 1.39421,12.90616 -2.43199,18.59186 l -3.55026,5.27567 12.35026,7.05853 c 36.88712,21.08203 75.44183,33.77416 102.66842,33.79821 8.99759,0.008 12.83259,2.75817 15.26429,10.94661 2.13505,7.18948 2.04054,11.5979 -0.45808,21.36741 -12.47403,48.77298 -90.48183,133.23492 -151.33041,163.85105 -17.98894,9.05118 -35.811,11.62874 -44.96481,6.50314 -6.10841,-3.42036 -7.46072,-6.23862 -7.48008,-15.58887 -0.0309,-14.94382 -5.96494,-40.60016 -14.03293,-60.67306 -7.90475,-19.66678 -27.19197,-55.69194 -30.38656,-56.75681 -1.60866,-0.53621 -31.86743,29.7125 -45.03844,45.02348 -6.05604,7.04 -18.03722,22.16 -26.62485,33.6 -29.38704,39.14792 -44.71314,58.62362 -65.05324,82.66666 -11.27098,13.32287 -13.58045,15.46667 -16.66199,15.46667 -3.73901,0 -8.08437,-3.92739 -8.08437,-7.30675 0,-3.57295 1.29498,-5.47518 12.81653,-18.82659 14.10036,-16.3398 34.144,-41.59569 53.88844,-67.90187 32.08954,-42.75399 41.495,-53.83164 67.78073,-79.83145 l 17.79354,-17.6 -5.24082,-6.93333 c -7.95116,-10.51897 -22.70087,-28.70812 -23.31914,-28.75685 -0.30106,-0.0237 -2.69632,2.71685 -5.32279,6.09018 -7.20198,9.24993 -35.60994,43.38229 -44.16675,53.06667 -62.96825,71.26584 -123.213135,124.9794 -173.429732,154.62769 -14.05755,8.29969 -18.590703,14.79977 -18.624506,26.70563 -0.01837,6.46983 0.457074,8.3511 3.56125,14.0914 7.656187,14.15796 23.436471,24.90589 37.785909,25.73594 12.465207,0.72105 14.348925,-0.47239 38.716032,-24.52874 14.887657,-14.69779 22.161287,-21.16527 23.803457,-21.16527 3.5827,0 6.05864,1.71392 7.49887,5.19094 1.05324,2.54274 1.01576,3.68217 -0.19729,5.99735 -1.98988,3.79782 -37.431606,39.36791 -43.228442,43.38501 -11.036644,7.64819 -26.36869,9.4327 -40.248614,4.68458 z M 374.22322,356.24797 C 417.84271,339.57965 480.63465,282.85939 513.24145,230.67212 523.72887,213.88698 530.1333,198.1843 530.1333,189.2559 v -3.36254 l -9.31931,-0.75616 c -10.42297,-0.84572 -25.82421,-3.81039 -36.84484,-7.09247 -4.01925,-1.19699 -7.79978,-2.01232 -8.40119,-1.81185 -0.60141,0.20047 -2.42741,4.43008 -4.05778,9.39913 -5.85373,17.84108 -8.15591,21.30131 -14.17228,21.30131 -3.36839,0 -7.20459,-3.70791 -7.20459,-6.96366 0,-1.43764 1.20122,-5.61894 2.66938,-9.29178 1.46816,-3.67284 3.58066,-9.87025 4.69444,-13.77202 l 2.02505,-7.09413 -10.29444,-4.47147 C 418.5857,152.03067 383.56612,129.04167 350.62351,100.61042 334.89067,87.032122 331.17642,85.415283 320.76281,87.611825 c -5.37182,1.133077 -6.47234,2.075505 -32.05147,27.447435 -14.56876,14.45073 -27.44304,28.12215 -28.60953,30.38092 -2.80537,5.4323 -2.80908,14.07486 -0.008,19.51963 1.16188,2.25876 5.91654,8.47825 10.56592,13.82107 28.02191,32.2013 53.45649,71.29702 66.71773,102.55244 3.29182,7.7585 3.42656,7.79526 14.87479,4.05818 27.86433,-9.09584 56.84339,-30.01126 77.53907,-55.96327 7.76044,-9.73145 11.01869,-11.83047 15.03091,-9.6832 3.34166,1.7884 5.59236,5.94973 4.72501,8.73606 -2.47418,7.94817 -28.71753,35.38903 -45.31257,47.38023 -16.64186,12.02503 -40.25275,23.83045 -53.02209,26.51098 -1.89994,0.39883 -3.73234,1.1748 -4.07199,1.72438 -0.33966,0.54958 0.57351,5.19265 2.02927,10.31793 3.42304,12.05155 5.78855,24.36209 6.60725,34.38537 0.35939,4.4 0.86649,8.66493 1.12689,9.47762 0.6323,1.97334 9.59175,0.92341 17.31959,-2.02963 z m 28.64134,-240.16725 c 1.35781,-1.27559 2.46875,-3.07013 2.46875,-3.98786 0,-2.17259 -33.06323,-35.292865 -35.23207,-35.292865 -1.5602,0 -10.63459,8.375043 -10.63459,9.815 0,1.543277 37.80555,31.571725 39.93124,31.716865 0.54886,0.0375 2.10886,-0.97554 3.46667,-2.25114 z"
       id="path1" />
  </g>
</svg>
