<?xml version="1.0" encoding="UTF-8" standalone="no"?>
<!-- Created with Inkscape (http://www.inkscape.org/) -->

<svg
   version="1.1"
   id="svg1"
   width="477.83514"
   height="545.92041"
   viewBox="0 0 477.83514 545.92041"
   xmlns="http://www.w3.org/2000/svg"
   xmlns:svg="http://www.w3.org/2000/svg">
  <defs
     id="defs1" />
  <g
     id="g1"
     transform="translate(-34.149086,-0.09155282)">
    <path
       style="fill:#000000"
       d="m 102.01051,543.92255 c -3.812738,-2.9991 -3.697566,-5.5481 1.52077,-33.65782 2.41185,-12.99198 4.06243,-24.70978 3.7246,-26.44174 -0.33367,-1.71068 -6.84275,-13.27744 -14.464615,-25.70392 -14.713405,-23.98833 -15.92866,-27.24837 -11.724603,-31.45243 2.631262,-2.63126 7.583139,-2.75786 10.430652,-0.26667 2.566149,2.24504 25.121886,39.05163 28.711136,46.85101 4.23527,9.20317 4.12188,13.27465 -1.16834,41.94899 -4.39109,23.80088 -5.06854,26.34754 -7.59025,28.53333 -3.43973,2.98153 -5.82865,3.02942 -9.43935,0.18925 z m 332.67293,-0.18925 c -2.52171,-2.18579 -3.19916,-4.73245 -7.59025,-28.53333 -5.28941,-28.66997 -5.40315,-32.74179 -1.1718,-41.94899 1.39466,-3.03472 16.34899,-28.02221 33.23184,-55.52776 16.88285,-27.50555 31.90943,-52.66037 33.3924,-55.89961 4.88236,-10.66449 4.63785,-13.696 -6.55187,-81.23018 -7.79816,-47.06478 -10.61977,-61.90552 -12.1681,-64 -1.10866,-1.49973 -4.00537,-3.36994 -6.43714,-4.15604 -3.93957,-1.2735 -4.85591,-1.21538 -8.40861,0.53334 -2.19297,1.07942 -4.89852,3.54614 -6.01233,5.48159 -2.01708,3.50504 -2.00494,3.71105 3.06121,51.9443 5.93802,56.53401 5.98408,55.49688 -3.12859,70.44423 -10.37142,17.01204 -11.79634,18.6258 -16.44626,18.6258 -2.63995,0 -4.7584,-0.70176 -5.88865,-1.95066 -3.24466,-3.58532 -2.13437,-7.75305 5.18499,-19.46309 3.82266,-6.11577 7.44961,-12.95094 8.05987,-15.18926 0.88086,-3.23079 0.089,-13.6748 -3.84127,-50.66667 -2.74229,-25.81017 -4.69863,-48.82467 -4.38544,-51.5907 2.70861,-23.92243 33.05807,-33.55131 49.25237,-15.62616 2.14763,2.37718 4.56611,5.9049 5.37439,7.83938 2.09903,5.0237 21.79293,125.58051 21.774,133.29029 -0.019,7.74998 -2.35558,18.1962 -5.44062,24.32378 -1.24601,2.47486 -16.84394,28.29915 -34.66205,57.38731 -17.81812,29.08816 -32.66978,54.28816 -33.00369,56 -0.33836,1.73467 1.31019,13.44039 3.72418,26.44386 5.21834,28.10972 5.33351,30.65872 1.52077,33.65782 -3.6107,2.84017 -5.99962,2.79228 -9.43935,-0.18925 z m -242.93656,-0.33634 c -1.60588,-0.87134 -3.21708,-2.76879 -3.58045,-4.21655 -0.96876,-3.85984 5.47579,-41.08182 9.04598,-52.24711 3.87906,-12.13127 8.11835,-21.28212 15.49508,-33.44746 8.90892,-14.69213 11.29484,-23.68711 9.25341,-34.8856 -0.63503,-3.48348 -2.62006,-9.14649 -4.41119,-12.58447 -4.0012,-7.68008 -62.87931,-94.31644 -66.0437,-97.18017 -5.79777,-5.24692 -15.86382,-0.0736 -14.63159,7.5197 0.30999,1.91024 8.75329,16.46006 18.92567,32.61345 10.1013,16.04051 19.01863,30.70914 19.81628,32.59697 1.85659,4.394 1.86257,13.25227 0.0119,17.66852 -6.51097,15.53734 -26.65663,20.05519 -38.59993,8.65639 -2.87296,-2.74197 -43.451563,-65.28318 -47.711366,-73.53447 -0.921059,-1.78411 -2.261715,-6.10411 -2.979235,-9.6 -1.170864,-5.70468 -0.783721,-11.2976 3.777046,-54.56571 5.063945,-48.04177 5.074571,-48.22179 3.053711,-51.73333 -1.115354,-1.93809 -3.822163,-4.40697 -6.015132,-5.48639 -3.552704,-1.74872 -4.469043,-1.80684 -8.408613,-0.53334 -2.431768,0.7861 -5.328483,2.65631 -6.437144,4.15604 -2.992876,4.04858 -22.512875,122.28422 -21.860716,132.41373 0.565935,8.79026 3.79975,15.68567 18.83869,40.16943 5.892911,9.5938 10.714384,18.28906 10.714384,19.32281 0,1.03375 -0.994838,3.14428 -2.210752,4.69006 -2.44518,3.10854 -7.804311,3.84081 -10.810827,1.47718 C 65.11685,413.20314 44.218911,379.5256 39.973164,371.14702 36.533908,364.35998 34.168938,354.19314 34.149098,346.10978 34.130174,338.4 53.824069,217.84319 55.923105,212.81949 c 4.186188,-10.01896 14.87088,-16.95607 26.179917,-16.99749 14.827503,-0.0543 26.817248,10.39174 28.446838,24.78427 0.31319,2.76603 -1.64315,25.78053 -4.38543,51.5907 -3.95699,37.24281 -4.72635,47.43075 -3.83248,50.75031 1.01104,3.75473 41.23711,68.18457 45.53613,72.93493 4.14791,4.58339 13.19858,1.02721 13.19858,-5.18597 0,-1.92097 -6.52305,-13.29156 -19.27337,-33.5962 -10.60036,-16.88086 -19.72036,-32.25101 -20.26667,-34.15589 -2.71925,-9.48148 -0.41746,-17.7576 6.93331,-24.92886 8.62464,-8.41402 18.03853,-9.92704 28.93754,-4.65092 2.57927,1.2486 6.07223,4.0324 7.76214,6.18623 4.24271,5.40742 62.3852,90.82765 65.64172,96.43774 5.14286,8.85975 7.37053,17.56286 7.44294,29.0783 0.0835,13.28161 -1.63873,19.17936 -9.52228,32.60851 -14.45922,24.63041 -18.07642,35.12111 -22.843,66.24998 -2.69956,17.62992 -2.69624,17.61984 -6.43496,19.5532 -3.71692,1.9221 -4.0105,1.91899 -7.69715,-0.0814 z m 154.72635,0.0313 c -3.50979,-1.90576 -3.53779,-1.9936 -6.21892,-19.50311 -4.76658,-31.12887 -8.38378,-41.61957 -22.843,-66.24998 -7.88355,-13.42915 -9.6058,-19.3269 -9.52228,-32.60851 0.0724,-11.51544 2.30008,-20.21855 7.44294,-29.0783 3.25652,-5.61009 61.39901,-91.03032 65.64172,-96.43774 1.68991,-2.15383 5.18287,-4.93763 7.76214,-6.18623 10.89901,-5.27612 20.3129,-3.7631 28.93754,4.65092 7.35078,7.17126 9.65256,15.44738 6.93331,24.92886 -0.54631,1.90488 -9.66631,17.27503 -20.26667,34.15589 -12.75032,20.30464 -19.27337,31.67523 -19.27337,33.5962 0,6.54819 9.05992,9.74872 13.50384,4.7704 1.1783,-1.32 5.4047,-7.57668 9.39199,-13.90373 3.98729,-6.32706 8.11534,-11.96706 9.17344,-12.53334 5.21695,-2.79202 11.66406,1.05347 11.66406,6.95725 0,4.3884 -16.94448,30.37018 -22.14435,33.95497 -12.75151,8.7909 -30.13772,3.64123 -36.15062,-10.70755 -1.71856,-4.10106 -1.87953,-12.86834 -0.31197,-16.99134 0.61952,-1.62944 9.53612,-16.34028 19.81467,-32.69076 10.38577,-16.52101 18.93765,-31.26475 19.24958,-33.18694 1.23377,-7.60285 -8.82729,-12.78097 -14.62999,-7.5296 -3.16439,2.86373 -62.0425,89.50009 -66.0437,97.18017 -1.79113,3.43798 -3.77616,9.10099 -4.41118,12.58447 -2.04144,11.19849 0.34448,20.19347 9.2534,34.8856 7.37673,12.16534 11.61602,21.31619 15.49508,33.44746 3.57371,11.17631 10.01434,48.38884 9.04408,52.25467 -0.36441,1.45193 -2.07177,3.36859 -3.79414,4.25926 -3.77419,1.95171 -4.06955,1.95098 -7.6976,-0.019 z M 257.70339,332.72402 c -40.22025,-5.55465 -74.52155,-32.0921 -89.67254,-69.3758 -6.20186,-15.26159 -9.82989,-38.2603 -6.89934,-43.73608 1.66116,-3.1039 6.10007,-4.50167 9.63977,-3.03548 3.61008,1.49534 4.88036,4.72432 5.74541,14.60447 3.00215,34.2893 27.58365,66.95562 59.70608,79.34334 13.51084,5.21033 21.81103,6.65621 37.91055,6.60394 17.57789,-0.0571 26.61592,-2.16821 42.13333,-9.84168 55.85489,-27.62065 69.00811,-96.45862 32.321,-169.1534 -6.73479,-13.34486 -16.73359,-28.86152 -17.79184,-27.6103 -0.43896,0.51899 -1.65732,3.82363 -2.70747,7.34363 -5.07895,17.02419 -19.61503,40.62386 -34.65711,56.26666 -4.82942,5.02229 -6.53183,6.13334 -9.39786,6.13334 -4.16731,0 -7.76672,-3.16971 -7.76672,-6.8395 0,-1.41506 0.71827,-6.32691 1.59616,-10.91523 2.45374,-12.82452 3.13825,-29.63969 1.69176,-41.55835 C 276.73792,97.745185 267.4555,69.311618 255.86573,48.390714 l -5.72187,-10.328628 -1.24752,14.835622 c -2.05136,24.394955 -7.12848,43.870625 -16.10256,61.768952 -6.48854,12.94106 -10.86534,19.13355 -23.74818,33.6 -6.00813,6.74666 -12.81358,15.04791 -15.12322,18.44722 -4.33501,6.38021 -10.96811,19.85885 -14.15938,28.77224 -2.95334,8.24885 -7.72346,11.15768 -12.82051,7.81796 -3.98124,-2.60861 -4.39021,-6.31814 -1.6466,-14.93535 5.33151,-16.74536 16.48508,-34.52399 32.64622,-52.03763 4.49893,-4.87544 10.09809,-11.68007 12.44258,-15.1214 17.38417,-25.517191 24.85147,-59.491993 21.93156,-99.784401 l -1.19147,-16.4413662 2.89708,-2.4919664 c 3.23975,-2.78671248 5.05547,-3.0608157 8.40409,-1.268691 3.24208,1.7351101 5.04485,4.0146659 15.07747,19.0650996 24.62676,36.943835 38.96381,79.218305 39.05229,115.150305 l 0.0224,9.09464 4.02828,-6.39999 c 5.13882,-8.16439 12.33201,-24.04926 13.98994,-30.89427 0.70527,-2.91184 1.71746,-9.151843 2.2493,-13.866664 1.04303,-9.246478 3.0282,-12.305734 7.98528,-12.305734 4.16616,0 5.55925,1.019328 11.43261,8.365247 25.51802,31.915901 41.91002,67.932151 47.2492,103.815271 2.11698,14.22759 1.59065,41.78903 -1.01504,53.15281 -9.47003,41.30014 -40.57555,73.32515 -81.47817,83.88668 -11.79135,3.04466 -31.06567,4.12921 -43.31612,2.43735 z m 4.69659,-27.2628 c -22.94736,-4.39043 -41.95048,-21.87621 -48.59734,-44.717 -2.59808,-8.92786 -2.37904,-24.47808 0.47249,-33.54423 5.87155,-18.66796 21.10612,-34.42189 39.38838,-40.73118 10.09381,-3.48341 29.74756,-3.50582 39.0641,-0.0445 18.55839,6.8948 31.53603,19.9221 38.4951,38.64238 2.58902,6.96462 2.97391,9.51856 2.97391,19.73334 0,10.21477 -0.38489,12.76871 -2.97391,19.73333 -6.97525,18.76381 -20.1856,31.99638 -38.4951,38.55983 -6.23292,2.23433 -23.84068,3.6092 -30.32763,2.36807 z m 27.03325,-18.53887 c 7.87158,-2.96819 16.09221,-9.59809 21.20035,-17.09801 15.25403,-22.39635 6.44132,-54.32393 -18.16133,-65.79676 -22.77643,-10.62122 -49.46268,-0.95936 -60.24974,21.81366 -3.20692,6.77025 -3.42252,7.96455 -3.42252,18.95875 0,10.93236 0.22648,12.20663 3.31771,18.66666 6.01543,12.571 16.36539,21.43657 29.21562,25.02551 7.79011,2.1757 19.97162,1.49517 28.09991,-1.56981 z M 428.0697,174.92588 c -3.85232,-1.55214 -4.60306,-4.55114 -4.60306,-18.38797 0,-11.812 0.22904,-13.44816 2.17489,-15.53679 3.15314,-3.3845 8.75837,-3.15475 11.61436,0.47605 1.94079,2.46732 2.21075,4.28474 2.21075,14.88315 0,13.07698 -0.95568,16.62733 -4.96781,18.45538 -2.99879,1.36634 -3.29865,1.37148 -6.42913,0.11018 z m -38.46034,-39.14411 c -5.27539,-1.01736 -7.43303,-9.15813 -3.47605,-13.11511 1.9215,-1.9215 3.55556,-2.13333 16.45591,-2.13333 14.20244,0 14.34113,0.0236 16.53334,2.81051 1.21591,1.54579 2.21075,3.4432 2.21075,4.21648 0,3.15452 -2.61776,6.79985 -5.63953,7.85324 -3.07913,1.0734 -21.10812,1.32789 -26.08442,0.36821 z m 56.68358,-0.77158 c -5.16472,-2.24834 -6.36111,-8.01739 -2.51808,-12.1424 2.02868,-2.17753 3.13733,-2.33446 16.49178,-2.33446 13.35445,0 14.4631,0.15693 16.49178,2.33446 4.01587,4.31054 2.38038,10.50819 -3.2951,12.48667 -4.75817,1.65871 -23.10323,1.42626 -27.17038,-0.34427 z m -312.04145,-3.71374 c -2.34186,-1.89426 -2.54341,-2.90848 -2.87873,-14.48573 -0.39827,-13.75085 0.55735,-17.695614 4.74952,-19.605692 3.70277,-1.687095 5.0526,-1.522886 8.2672,1.005718 2.78693,2.192204 2.81051,2.330904 2.81051,16.533334 0,12.90036 -0.21184,14.53442 -2.13333,16.45591 -2.69473,2.69473 -7.54942,2.73803 -10.81517,0.0965 z m 293.83327,-14.5002 c -1.77769,-0.74746 -3.54401,-2.17166 -3.92515,-3.16488 -0.90178,-2.35001 -0.90178,-26.512746 0,-28.86275 1.05972,-2.761574 6.6092,-4.714993 10.01849,-3.526509 4.23742,1.477172 5.28854,5.046384 5.28854,17.957883 0,6.422936 -0.54357,12.825966 -1.21369,14.296716 -1.6501,3.62158 -6.02554,5.04139 -10.16819,3.29954 z M 94.35151,91.248479 c -1.44,-1.44 -2.618182,-3.861818 -2.618182,-5.381817 0,-1.52 1.178182,-3.941818 2.618182,-5.381818 2.498513,-2.498514 3.223245,-2.618182 15.85615,-2.618182 11.77735,0 13.54807,0.243924 16.04848,2.210752 3.67381,2.889819 3.83178,8.191286 0.34177,11.469979 -2.26783,2.130519 -3.57391,2.319268 -16.04848,2.319268 -12.995772,0 -13.692328,-0.112589 -16.19792,-2.618182 z m 59.4927,1.904269 c -2.68941,-1.082077 -4.58802,-6.410993 -3.39867,-9.53921 1.92957,-5.075155 3.75618,-5.676342 17.35791,-5.712952 15.93477,-0.04289 18.81357,1.208288 18.84687,8.19119 0.0103,2.165513 -0.84217,4.224938 -2.31813,5.6 -2.10405,1.960221 -3.65695,2.166573 -15.73333,2.090675 -7.36938,-0.04632 -14.00897,-0.329683 -14.75465,-0.629703 z M 134.42712,73.627127 c -3.01463,-3.014635 -3.46533,-5.852326 -3.05687,-19.246831 0.33555,-11.003724 0.55396,-12.060661 2.88124,-13.943274 3.41086,-2.759143 7.79901,-2.580911 10.62923,0.431724 2.13592,2.273581 2.31927,3.565919 2.31927,16.347397 0,13.128022 -0.13352,14.004087 -2.46875,16.197918 -3.07459,2.888428 -7.53649,2.98069 -10.30412,0.213066 z"
       id="path1" />
  </g>
</svg>
