<?xml version="1.0" encoding="UTF-8" standalone="no"?>
<!-- Created with Inkscape (http://www.inkscape.org/) -->

<svg
   version="1.1"
   id="svg1"
   width="511.23688"
   height="324.43094"
   viewBox="0 0 511.23688 324.43094"
   sodipodi:docname="eye.png"
   inkscape:export-filename="eye.svg"
   inkscape:export-xdpi="96"
   inkscape:export-ydpi="96"
   xmlns:inkscape="http://www.inkscape.org/namespaces/inkscape"
   xmlns:sodipodi="http://sodipodi.sourceforge.net/DTD/sodipodi-0.dtd"
   xmlns="http://www.w3.org/2000/svg"
   xmlns:svg="http://www.w3.org/2000/svg">
  <defs
     id="defs1" />
  <sodipodi:namedview
     id="namedview1"
     pagecolor="#ffffff"
     bordercolor="#000000"
     borderopacity="0.25"
     inkscape:showpageshadow="2"
     inkscape:pageopacity="0.0"
     inkscape:pagecheckerboard="0"
     inkscape:deskcolor="#d1d1d1"
     inkscape:zoom="0.4609375"
     inkscape:cx="256"
     inkscape:cy="254.91525"
     inkscape:window-width="1472"
     inkscape:window-height="816"
     inkscape:window-x="0"
     inkscape:window-y="37"
     inkscape:window-maximized="1"
     inkscape:current-layer="g1" />
  <g
     inkscape:groupmode="layer"
     inkscape:label="Image"
     id="g1"
     transform="translate(-0.21668284,-93.569054)">
    <path
       style="fill:#000000"
       d="M 235,417.2879 C 224.70345,416.13461 200.16034,410.40171 187.2368,406.13114 147.92549,393.14075 112.17136,371.91095 72.800027,338.18178 52.051711,320.40684 6.2915622,273.33207 2.3476897,265.70546 -0.13490226,260.90466 -0.49110906,253.57447 1.5042899,248.3496 4.6763987,240.04355 44.199198,197.44484 69.5,175.06204 122.8341,127.87909 177.49188,100.80364 231.61689,94.755324 l 10.61567,-1.186272 2.38372,2.771238 c 3.66153,4.25678 3.05562,8.76414 -1.48746,11.06513 -1.44585,0.7323 -5.86035,1.63985 -9.80999,2.01678 -40.20274,3.83675 -90.98212,26.60028 -133.493444,59.84282 -29.834722,23.32983 -84.83918,79.10296 -84.818797,86.00411 0.0096,3.23818 2.022974,5.88565 16.677141,21.92913 C 98.05309,349.85989 165.65647,392.03287 231,401.53763 c 9.72148,1.41407 11.84797,2.05176 13.75,4.12333 3.60802,3.92964 2.84915,8.46072 -1.82152,10.87603 -1.55604,0.80465 -3.18901,1.39099 -3.62882,1.30297 -0.43981,-0.088 -2.37466,-0.33645 -4.29966,-0.55206 z M 267,416 c -2.47069,-2.47069 -2.58122,-7.06066 -0.23967,-9.95235 1.48887,-1.83867 3.63628,-2.39241 13.92494,-3.59074 C 346.3075,394.81382 410.62505,355.95341 473.43215,286 492.16532,265.13534 497,258.97624 497,255.97593 c 0,-3.41799 -13.14755,-18.95456 -35,-41.35981 -36.76429,-37.69431 -71.33458,-63.88724 -108.5,-82.2074 -25.57655,-12.60759 -47.64926,-19.43172 -74.02614,-22.88637 -8.9792,-1.17603 -11.29195,-1.82867 -12.72386,-3.5906 -2.38251,-2.93161 -2.2087,-7.473054 0.3853,-10.067049 1.91751,-1.917515 2.86094,-2.07289 9.25,-1.523397 42.64715,3.667882 91.35407,23.547996 133.87989,54.644126 17.91632,13.10094 33.66484,26.88567 54.82024,47.98434 21.35747,21.30019 41.58809,43.65132 44.60562,49.28105 2.33455,4.3555 2.35374,15.1079 0.0347,19.43129 -3.65331,6.81083 -33.64459,40.15059 -53.40746,59.37033 C 408.87004,371.19667 362.27491,399.26353 313,411.38105 298.02859,415.06277 280.33216,418 273.12166,418 270.33333,418 268.35301,417.35301 267,416 Z M 243,371.35227 C 182.32822,365.67247 130.19654,342.39421 71.045418,294.5697 54.604822,281.27725 52.312011,278.87628 48.622077,271.0886 45.824225,265.18367 45.505931,263.5661 45.554654,255.5 c 0.09882,-16.35967 5.772129,-24.20724 32.714919,-45.25275 48.758897,-38.08647 91.948957,-58.85603 139.858807,-67.25634 17.57571,-3.08165 45.88919,-3.78247 63.87162,-1.58096 52.17212,6.38722 100.51132,28.42498 152.09072,69.33791 18.27019,14.49196 26.36187,22.43769 29.63275,29.09824 2.50011,5.09102 2.77653,6.69924 2.77653,16.1539 0,17.24971 -2.73071,21.35721 -28.34947,42.64294 -58.95736,48.98559 -120.09086,73.888 -179.65053,73.17969 -6.6,-0.0785 -13.575,-0.29015 -15.5,-0.47036 z m 30.492,-15.87884 c 38.57659,-6.72719 70.72989,-36.7414 80.56798,-75.20796 C 355.12699,276.0935 356,271.91274 356,270.9749 c 0,-0.93785 0.93266,-2.89087 2.07258,-4.34004 2.70064,-3.4333 7.92073,-3.61629 10.9788,-0.38486 2.62402,2.77278 2.23853,8.0076 -1.57314,21.36252 -5.24856,18.38938 -15.76132,36.358 -29.16424,49.84815 -4.11982,4.14663 -7.27018,7.53933 -7.0008,7.53933 0.26939,0 5.37162,-1.96294 11.3383,-4.36209 28.93461,-11.63435 58.35525,-29.72549 84.8485,-52.17445 22.34175,-18.9312 23.95009,-21.10852 23.98015,-32.46346 0.0259,-9.77298 -1.56625,-12.43845 -13.03314,-21.8197 -28.74749,-23.51879 -58.7034,-43.75554 -82.34959,-55.63137 C 348.42823,174.69723 335.39125,169 334.24659,169 c -0.22473,0 2.58587,3.2625 6.24578,7.25 12.1168,13.20135 20.4989,27.4712 25.9556,44.18735 5.19978,15.92911 5.17344,22.04723 -0.10529,24.45238 -6.0469,2.75515 -9.38607,-0.48075 -11.81766,-11.45217 -7.95438,-35.89044 -34.52289,-63.98424 -71.02502,-75.10255 -8.42219,-2.56534 -10.18773,-2.74134 -27.5,-2.74134 -17.31227,0 -19.07781,0.176 -27.5,2.74134 -38.4235,11.70354 -66.69402,43.51246 -72.58066,81.66499 -1.64314,10.64959 -0.65254,31.53035 1.96189,41.35418 10.087,37.90238 41.82001,67.1553 80.45291,74.1651 9.88761,1.79407 24.71788,1.77473 35.15786,-0.0458 z m -30.83225,-15.52106 c -26.76136,-4.49166 -49.82987,-21.18431 -62.09568,-44.93318 -6.28852,-12.17573 -8.63224,-21.14981 -9.27638,-35.51919 -0.61815,-13.78936 0.80444,-22.63013 5.66342,-35.19587 10.37735,-26.8367 36.38271,-47.67181 65.32005,-52.33346 10.24218,-1.64996 27.03862,-0.73941 36.54984,1.98142 34.77768,9.94866 59.6608,40.94421 61.85379,77.04791 0.98823,16.26929 -2.75525,32.29273 -10.98037,47 -5.73775,10.25962 -21.4348,25.95667 -31.69442,31.69442 -16.92499,9.4654 -37.42375,13.26508 -55.34025,10.25795 z M 270.5,324.50466 c 3.85,-0.80334 11.275,-3.56184 16.5,-6.13001 7.88501,-3.8756 10.96244,-6.13183 18.10263,-13.27202 7.1915,-7.1915 9.36035,-10.16096 13.22191,-18.10263 12.69389,-26.10626 9.52536,-51.37721 -8.72447,-69.5829 -10.29083,-10.26594 -24.51566,-16.38237 -38.10007,-16.38237 -19.37065,0 -39.69256,12.60839 -48.41717,30.03962 -2.15748,4.31051 -4.46089,10.42978 -5.11869,13.59838 -6.86725,33.07938 21.75934,58.72711 52.67694,47.19544 8.24049,-3.07355 18.16912,-13.03876 21.28971,-21.36817 4.60506,-12.29173 3.72752,-22.03437 -2.65648,-29.49263 -9.23087,-10.78419 -24.61569,-11.51214 -34.49564,-1.63219 -3.89635,3.89634 -6.72837,10.07448 -6.75671,14.73996 -0.0483,7.95272 -7.90261,11.83416 -12.98965,6.41925 -2.05366,-2.18602 -2.25429,-3.14972 -1.76928,-8.49849 1.13124,-12.47557 9.65105,-24.9154 20.79144,-30.35775 16.09237,-7.86149 33.21657,-4.71354 45.28832,8.32538 12.15753,13.13159 13.83798,31.41402 4.58643,49.89805 -7.74299,15.47002 -23.01756,26.58407 -40.20896,29.25676 -27.25585,4.23737 -55.08358,-15.02038 -60.62928,-41.95756 -4.64397,-22.55721 4.85342,-48.42868 23.65901,-64.4486 7.1834,-6.11932 21.54621,-13.17992 30.75001,-15.11636 l 7,-1.47277 -9.09004,-0.0815 c -31.51029,-0.28261 -59.8514,22.00255 -67.88409,53.37857 -2.17819,8.50808 -1.98695,24.41718 0.40599,33.77346 9.27383,36.26035 45.80198,58.94269 82.56814,51.2711 z m -102.37619,7.1426 C 155.4992,316.63188 148.08158,302.41341 143.29314,284.05057 139.87748,270.95215 139.0398,249.3761 141.44701,236.5 c 4.42671,-23.67839 14.13147,-43.11977 30.14427,-60.38752 7.97121,-8.59592 7.87236,-8.59789 -10.59128,-0.21095 -27.63184,12.55151 -52.57168,28.61543 -81.087546,52.22903 -5.823151,4.82207 -12.205705,10.55851 -14.183453,12.74764 -7.858208,8.6981 -7.613256,20.95176 0.596912,29.86038 11.128761,12.0755 47.356197,38.40169 72.674087,52.81169 7.831,4.45712 34.52648,17.26974 36.2437,17.39534 0.40903,0.0299 -2.79492,-4.15434 -7.11989,-9.29835 z"
       id="path1" />
  </g>
</svg>
