<?xml version="1.0" encoding="UTF-8" standalone="no"?>
<!-- Created with Inkscape (http://www.inkscape.org/) -->

<svg
   version="1.1"
   id="svg1"
   width="284.75684"
   height="511.63293"
   viewBox="0 0 284.75684 511.63293"
   xmlns="http://www.w3.org/2000/svg"
   xmlns:svg="http://www.w3.org/2000/svg">
  <defs
     id="defs1" />
  <g
     id="g1"
     transform="translate(-113.68298,-0.20028511)">
    <path
       style="fill:#000000"
       d="m 242.5,511.3405 c -9.88287,-1.18539 -23.17057,-3.97074 -30.83532,-6.46367 -49.83993,-16.21024 -87.0015,-59.22739 -96.21599,-111.37683 -2.33909,-13.23808 -2.35667,-35.67495 -0.0379,-48.43343 3.61897,-19.91291 11.39994,-39.13737 22.73632,-56.17465 4.96008,-7.45443 13.17425,-16.4059 39.81789,-43.39192 23.29155,-23.59085 34.39534,-35.55368 36.26893,-39.07486 2.42879,-4.5646 5.76611,-14.995 5.76611,-18.02127 0,-0.64677 -3.11365,-3.02573 -6.91923,-5.28658 -11.17095,-6.63654 -17.43069,-15.56014 -18.90958,-26.95664 -1.52843,-11.7782 3.04976,-24.77008 11.18147,-31.73051 2.19613,-1.87982 3.8027,-3.56027 3.57016,-3.73436 -0.23255,-0.17408 -2.78398,-1.7979 -5.66984,-3.60848 -19.37965,-12.15874 -22.26566,-40.759675 -5.65766,-56.0684 4.85949,-4.479322 12.60241,-8.46461 18.53223,-9.538554 l 3.62754,-0.656983 0.48135,-11.161681 c 0.80636,-18.697917 6.75937,-29.088205 20.55771,-35.881108 9.6968,-4.77371852 20.7149,-4.77371852 30.4117,0 8.12195,3.998422 14.779,11.045366 17.9656,19.017794 2.15069,5.380747 2.29818,7.30602 2.62058,34.209145 l 0.34164,28.507513 6.0491,3.492487 C 311.2052,96.526087 318,107.6669 318,121.5 c 0,10.17126 -2.66603,16.94515 -9.62931,24.46633 l -5.45974,5.89717 4.45803,2.61258 c 22.88883,13.41375 24.01162,45.68209 2.13102,61.24408 l -3,2.13367 30.56315,30.82309 c 32.52899,32.80565 38.34974,39.96421 46.96011,57.75322 15.70353,32.44344 18.72105,70.23513 8.34951,104.56986 -3.42584,11.34116 -8.68088,22.55935 -11.19899,23.907 -3.24304,1.73562 -8.65565,1.2884 -11.50174,-0.95033 -4.28361,-3.36949 -4.36114,-7.47972 -0.33202,-17.60309 C 383.09608,381.79076 381.57796,345.83244 364.97657,313 357.78375,298.77483 351.35683,291.2037 317.32971,256.87034 298.99837,238.37402 284,222.82986 284,222.32774 c 0,-0.50211 -1.9125,-1.4286 -4.25,-2.05886 -2.3375,-0.63026 -12.51455,-5.89859 -22.61566,-11.7074 C 247.03323,202.75266 238.65198,198 238.50934,198 c -0.14264,0 -0.54058,1.40621 -0.88432,3.12492 -0.34374,1.7187 -1.82533,5.79963 -3.29241,9.06872 l -2.66742,5.9438 48.07394,48.18128 c 51.61221,51.72745 55.06132,55.76154 61.12969,71.49734 9.39701,24.36725 7.85186,52.53842 -4.14659,75.60097 -11.92908,22.92919 -33.23673,39.76995 -58.39253,46.15124 -12.62521,3.20265 -30.77671,3.38939 -43.06626,0.44307 -48.58961,-11.649 -78.4492,-58.7176 -68.3366,-107.72108 2.17308,-10.53025 6.88201,-22.09506 12.53913,-30.79525 2.25033,-3.46083 16.28694,-18.47627 33.2059,-35.52147 l 29.30777,-29.52647 -11.274,-11.24201 -11.274,-11.24202 -29.05694,29.26848 C 173.0657,278.66654 159.19475,293.5323 156.06675,298 c -34.02588,48.59896 -29.39297,113.2125 11.16101,155.65883 10.83131,11.33673 21.62424,19.26865 35.22047,25.88419 32.27157,15.70242 66.78136,16.53491 102.25084,2.46661 9.08779,-3.6045 11.88239,-3.51908 15.88705,0.48558 3.23945,3.23945 3.31736,9.38004 0.16388,12.91656 -4.55305,5.1061 -30.31806,13.33571 -48.72377,15.56287 -8.01485,0.96983 -22.94811,1.15487 -29.52623,0.36586 z m 32.29918,-73.41088 C 305.85132,429.63188 327,401.70568 327,369 327,356.87415 324.52684,346.77771 318.84629,335.71328 314.94493,328.11432 312.43693,325.29353 285.31477,298 L 256,268.5 226.68523,298 c -27.12216,27.29353 -29.63016,30.11432 -33.53152,37.71328 C 187.47316,346.77771 185,356.87415 185,369 c 0,47.53507 43.86346,81.20455 89.79918,68.92962 z M 294.6849,200.93867 c 7.59799,-2.86456 12.32864,-11.46094 10.35025,-18.80812 -1.63416,-6.06881 -4.2271,-8.49816 -16.79775,-15.73795 C 233.73249,135.00167 233.72937,135 229.79511,135 c -7.61361,0 -14.3701,5.54344 -16.19511,13.28747 -0.86695,3.67873 0.92054,10.06617 3.68425,13.16532 1.93879,2.17411 61.55139,37.32298 67.10959,39.56926 2.95587,1.19458 6.98802,1.16191 10.29106,-0.0834 z m -4.5232,-65.53913 c 8.85939,-4.52532 10.90385,-16.9345 4.02658,-24.43999 C 292.70973,109.34594 277.325,99.854721 260,89.867953 226.76858,70.712137 223.94217,69.543862 216.65131,71.950065 c -10.26282,3.387033 -13.5451,18.0976 -5.74488,25.747413 3.15418,3.093362 61.29263,36.883042 67.00788,38.944532 3.82465,1.37955 7.92941,0.96313 12.24739,-1.24247 z M 272,53.21189 C 272,34.662249 271.85918,33.148189 269.75,29.020432 266.46764,22.596717 263.08403,20.5 256,20.5 c -7.08403,0 -10.46764,2.096717 -13.75,8.520432 -1.93413,3.78517 -2.24852,5.952967 -2.23944,15.441458 l 0.0106,11.03811 15.23943,8.720922 c 8.38169,4.796507 15.57694,8.734007 15.98944,8.75 0.4125,0.01599 0.75,-8.875572 0.75,-19.759032 z m 72.88805,418.28847 c -8.46265,-4.59937 -4.54213,-17.95491 5.27066,-17.95491 3.30056,0 4.57981,0.59748 6.94363,3.24305 7.63627,8.54648 -2.06296,20.229 -12.21429,14.71186 z"
       id="path1" />
  </g>
</svg>
