<?xml version="1.0" encoding="UTF-8" standalone="no"?>
<!-- Created with Inkscape (http://www.inkscape.org/) -->

<svg
   version="1.1"
   id="svg1"
   width="429.80844"
   height="511.82767"
   viewBox="0 0 429.80844 511.82767"
   xmlns="http://www.w3.org/2000/svg"
   xmlns:svg="http://www.w3.org/2000/svg">
  <defs
     id="defs1" />
  <g
     id="g1"
     transform="translate(-82.191551,-0.17232499)">
    <path
       style="fill:#000000"
       d="m 89.678912,509.74767 c -2.14275,-1.22845 -4.74536,-3.80855 -5.78358,-5.73355 -1.79717,-3.33218 -1.8722,-6.16116 -1.56475,-59 0.36979,-63.55244 0.2329,-62.40073 9.70004,-81.60816 9.645458,-19.56919 23.133218,-33.17618 42.544188,-42.92027 19.04344,-9.55959 20.57826,-9.79314 67.25,-10.23318 l 40.25,-0.3795 v -7.78787 -7.78786 l -5.62999,-3.73811 c -13.98226,-9.28369 -29.64938,-28.82507 -36.1867,-45.13515 -7.17548,-17.90226 -7.48273,-20.21052 -7.94108,-59.6599 l -0.41537,-35.75 -34.16343,-0.0164 c -33.50966,-0.0161 -34.23799,-0.0592 -38.05933,-2.25 -9.42218,-5.40181 -10.07648,-18.69357 -1.23081,-25.00324 2.99641,-2.13737 4.22944,-2.25115 29.58945,-2.73031 l 26.46273,-0.5 5.74666,-34.499997 c 3.69779,-22.19958 6.66426,-37.01799 8.3203,-41.5624 10.95993,-30.07552 43.88348,-48.4055904 75.45379,-42.0086304 9.71655,1.96883 18.31792,5.63862 26.94098,11.4944304 l 6.1128,4.15112 5.75,-3.89651 c 7.5904,-5.1437104 12.44541,-7.5548704 20.82074,-10.3403404 5.80312,-1.93001002 8.96075,-2.29641002 19.42926,-2.25449002 10.80204,0.0433 13.60442,0.41533002 20.63052,2.73917002 14.08304,4.65789 27.28555,14.8676504 35.70991,27.6152004 6.26653,9.48236 8.36795,17.32418 14.48744,54.0624 l 5.74666,34.499997 26.46273,0.5 c 25.36001,0.47916 26.59303,0.59294 29.58945,2.73031 8.90764,6.35387 8.02092,20.34783 -1.60033,25.25623 -3.72611,1.90092 -5.8445,2.01346 -37.89997,2.01346 h -33.95327 l -0.41932,35.75 c -0.46464,39.61321 -0.93031,43.02576 -8.23464,60.34499 -6.92695,16.42443 -22.31201,35.46332 -36.28709,44.90501 l -5.18052,3.5 -0.0258,7.67944 -0.0258,7.67945 40.25,0.3795 c 37.56679,0.3542 40.77188,0.52417 48.07857,2.54974 33.88871,9.39464 59.50029,34.94689 68.87144,68.71187 2.1479,7.73902 2.23155,9.80022 2.56429,63.18374 0.33757,54.15973 0.30559,55.25895 -1.72363,59.23654 -1.34946,2.64516 -3.43838,4.75213 -6.01429,6.06626 -3.9175,1.99856 -5.45078,2.01334 -207.23654,1.99701 l -203.289808,-0.0164 z m 62.420348,-38.98355 c 0.0277,-12.75309 0.92003,-17.63119 4.68982,-25.63822 3.39044,-7.20128 13.15129,-17.03933 20.03573,-20.1942 l 5.25,-2.40588 v -41.25585 -41.25585 l -5.75,0.0174 c -23.13915,0.0698 -46.85915,15.01087 -57.12514,35.9826 -6.75172,13.79266 -7.08778,16.83049 -7.1075,64.25 l -0.0174,41.75 h 20 20 z m 259.97555,1.13615 c 0,-11.85479 -1.79004,-16.2758 -8.00404,-19.76826 l -3.76827,-2.11789 H 297.07481 193.84712 l -3.76827,2.11789 c -6.214,3.49246 -8.00404,7.91347 -8.00404,19.76826 v 10.11385 h 115 115 z m 69.98264,-31.63615 c -0.0197,-47.43424 -0.35608,-50.47055 -7.11742,-64.25 -5.85233,-11.92694 -16.93828,-23.01289 -28.86522,-28.86522 -9.30128,-4.56398 -19.32932,-7.09048 -28.25,-7.11742 l -5.75,-0.0174 v 41.25585 41.25585 l 5.25,2.40588 c 6.88444,3.15487 16.64529,12.99292 20.03573,20.1942 3.76979,8.00703 4.66211,12.88513 4.68982,25.63822 l 0.0245,11.25 h 20 20 z m -99.98264,-60.25 v -40 h -18.91007 -18.91007 l -18.74155,23.45801 c -19.2743,24.12482 -21.86416,26.54199 -28.43831,26.54199 -6.57415,0 -9.16401,-2.41717 -28.43831,-26.54199 l -18.74155,-23.45801 h -18.91007 -18.91007 v 40 40 h 85 85 z m -72.09468,-45.12711 12.09468,-15.12711 v -6.44028 c 0,-5.67469 -0.20803,-6.37544 -1.75,-5.8949 -10.11861,3.15337 -36.38139,3.15337 -46.5,0 -1.54197,-0.48054 -1.75,0.22021 -1.75,5.8949 v 6.44028 l 12.09468,15.12711 c 6.65208,8.31991 12.45947,15.12711 12.90532,15.12711 0.44585,0 6.25324,-6.8072 12.90532,-15.12711 z m 10.22007,-58.85599 c 12.13267,-4.05769 21.64803,-10.05493 30.43559,-19.18262 8.75363,-9.09245 13.39721,-16.70566 17.62016,-28.88849 l 3.27421,-9.44579 0.35236,-34.25 0.35236,-34.25 h -75.16007 -75.16007 l 0.42333,34.25 c 0.44501,36.00534 0.54724,36.90867 5.60202,49.50374 8.38541,20.89404 30.02206,39.2326 52.13472,44.1878 8.16418,1.8295 9.40845,1.92638 20.12539,1.56697 8.61536,-0.28893 12.39882,-0.94945 20,-3.49161 z m 68.87461,-157.13617 c 0,-0.61559 -2.28576,-14.67809 -5.07947,-31.249997 -5.2311,-31.03013 -6.83929,-36.72447 -12.44873,-44.07881 -6.55321,-8.59171 -20.50182,-14.30524 -32.24634,-13.20852 -8.08353,0.75486 -12.50059,2.77033 -25.82731,11.78483 -10.28677,6.95822 -11.2067,7.37111 -16.39815,7.36012 -5.21363,-0.011 -6.13902,-0.43847 -17.77309,-8.20937 -13.09229,-8.7449 -16.25224,-10.08804 -25.79913,-10.9659 -10.8418,-0.99694 -24.50717,4.85795 -30.89958,13.23884 -5.7271,7.50861 -7.26994,12.96465 -12.48127,44.13827 -2.77581,16.604607 -5.04693,30.667107 -5.04693,31.249997 0,0.73873 27.87215,1.05981 92,1.05981 67.20222,0 92,-0.30169 92,-1.11927 z"
       id="path1" />
  </g>
</svg>
