<?xml version="1.0" encoding="UTF-8" standalone="no"?>
<!-- Created with Inkscape (http://www.inkscape.org/) -->

<svg
   version="1.1"
   id="svg1"
   width="449.52167"
   height="511.51837"
   viewBox="0 0 449.52167 511.51837"
   xmlns="http://www.w3.org/2000/svg"
   xmlns:svg="http://www.w3.org/2000/svg">
  <defs
     id="defs1" />
  <g
     id="g1"
     transform="translate(-31.330057,-0.12536377)">
    <path
       style="fill:#000000"
       d="m 245,510.70765 c -11.68746,-3.3575 -20.72659,-10.58512 -28.7503,-22.98849 -5.72905,-8.85622 -8.2372,-14.52352 -18.24214,-41.21916 -4.53481,-12.1 -9.56721,-24.62526 -11.18309,-27.83392 -3.71272,-7.3723 -10.15654,-14.4345 -15.32447,-16.79507 -4.77996,-2.18335 -12.48289,-2.32978 -18,-0.34217 -5.65511,2.03732 -8.83349,1.81672 -11.22118,-0.77884 -1.13839,-1.2375 -4.64328,-7.425 -7.78865,-13.75 -3.14536,-6.325 -5.83193,-11.62704 -5.97016,-11.78232 -0.13822,-0.15527 -6.36438,2.72109 -13.83592,6.39193 -16.274544,7.99583 -16.929017,7.93568 -23.570853,-2.16656 -15.014939,-22.83772 -22.175338,-52.17281 -19.227326,-78.77148 0.680998,-6.14436 1.483952,-12.61785 1.784342,-14.38552 l 0.546162,-3.21394 -16.32413,5.46394 c -18.855469,6.31123 -21.823853,6.6377 -24.891628,2.73766 -2.498516,-3.17635 -2.374361,-5.44456 1.601905,-29.26548 7.288889,-43.66609 22.320758,-81.17571 44.175637,-110.23321 l 7.314402,-9.72498 -1.626264,-10.27502 C 82.262243,117.84916 81.409084,83.309028 82.939316,69.953501 86.146344,41.963253 95.40016,15.291844 104.87421,6.7326102 c 7.55732,-6.82758752 19.87029,-8.454413 28.94585,-3.8244099 6.19732,3.1616358 17.91067,12.9365407 26.86385,22.4181327 12.88984,13.650597 23.63547,30.881362 30.8221,49.423667 1.54548,3.9875 3.34058,7.25 3.98911,7.25 0.64852,0 5.63993,-0.674325 11.09201,-1.498501 5.45208,-0.824175 15.65959,-1.793951 22.68337,-2.155057 12.43531,-0.639323 12.83558,-0.595417 15.25,1.672815 2.96547,2.785916 3.22171,6.842586 0.63406,10.038196 -1.6799,2.07459 -3.04785,2.355711 -15.25,3.133962 -24.44032,1.558799 -34.95701,3.886554 -59.87231,13.252075 -18.66069,7.01446 -22.75752,8.23541 -24.93117,7.43011 -4.70516,-1.74318 -4.98542,-2.93647 -4.39364,-18.707302 0.40744,-10.858196 0.1238,-17.550698 -1.09238,-25.775102 C 137.90068,57.797667 132.72515,35.854375 128.67328,23 l -2.3641,-7.5 -4.80096,0.07201 c -4.02857,0.06043 -5.23393,0.556584 -7.49216,3.083987 -6.20685,6.946675 -13.80675,31.653789 -16.055039,52.194638 -1.676289,15.31492 -0.673681,47.815145 1.943472,62.998995 1.075947,6.2423 1.684247,12.05852 1.351767,12.92494 -0.33247,0.86642 -3.710279,5.43409 -7.506231,10.15037 -17.36695,21.57757 -30.648593,49.24982 -38.825443,80.89264 C 53.316064,244.04225 52,249.50307 52,249.95274 c 0,0.44967 3.4875,-2.77354 7.75,-7.16269 10.399435,-10.70844 18.761587,-16.90786 30.75,-22.797 16.03492,-7.87694 23.06305,-9.46168 42,-9.47037 17.32992,-0.008 20.41821,0.5699 36,6.73599 15.79857,6.25188 35.89189,22.39803 44.87021,36.05582 10.07737,15.32967 13.76924,34.41208 10.09715,52.18983 -1.63809,7.93048 -8.62902,25.84947 -11.21487,28.74568 -2.14148,2.39852 -7.7405,2.26199 -10.25249,-0.25 -2.94583,-2.94583 -2.50887,-5.875 2.7285,-18.29066 l 4.72851,-11.20934 0.009,-12 c 0.008,-10.71793 -0.27195,-12.67082 -2.62389,-18.27879 C 202.75457,264.47394 198.0791,257.32249 191,249.98901 185.22627,244.00781 173.11388,235 170.84496,235 170.38023,235 170,240.4 170,247 c 0,10.66667 -0.22222,12.22222 -2,14 -2.69371,2.69371 -8.10849,2.64164 -10.59501,-0.10188 -1.66556,-1.8377 -1.94521,-4.0337 -2.22498,-17.47232 l -0.31999,-15.37044 -3.68001,-1.12322 c -5.72729,-1.7481 -25.061,-2.33232 -32.76811,-0.99018 -15.29891,2.66419 -30.967224,11.01382 -44.339359,23.62842 C 67.355553,255.90685 55,271.06855 55,272.97462 c 0,0.46834 6.943239,-1.4524 15.42942,-4.2683 13.79233,-4.5766 15.690443,-4.98013 17.889543,-3.80321 4.489851,2.4029 4.845466,4.99456 2.145687,15.6374 -6.275635,24.73929 -5.603406,46.91908 2.075352,68.47506 3.162698,8.87839 9.451798,20.97564 10.920438,21.00573 0.57176,0.0117 6.94308,-2.97045 14.15849,-6.62703 17.4985,-8.86776 16.64969,-9.16997 26.10726,9.29523 l 7.22618,14.10861 4.27382,-0.99486 c 2.35059,-0.54718 7.73085,-0.74319 11.95611,-0.43558 l 7.6823,0.55929 6.3177,-15.02456 c 3.47474,-8.26351 7.12273,-15.89707 8.10666,-16.96348 2.69947,-2.92577 8.06575,-2.57473 10.63846,0.69594 1.13992,1.44917 2.07258,3.25146 2.07258,4.00509 0,0.75363 -3.20613,8.99402 -7.12473,18.31197 l -7.12474,16.94174 4.73879,6.30317 c 6.60559,8.78625 11.11945,18.24713 19.38238,40.62468 3.92396,10.62684 7.59892,20.18934 8.16657,21.25 1.21425,2.26885 5.65818,2.53733 12.69012,0.76666 C 237.72038,461.58118 247,453.72591 247,450.75715 c 0,-0.97556 -2.1172,-2.57982 -5.37001,-4.06901 -2.95351,-1.35216 -7.22303,-4.13256 -9.48782,-6.17866 -4.57116,-4.12977 -22.79909,-31.82642 -24.23043,-36.81723 -3.10024,-10.80989 2.27064,-23.11263 12.26406,-28.09256 L 225.39269,373 H 255.5 285.60731 l 5.3253,2.65371 c 10.93093,5.44711 16.71574,19.249 12.71909,30.34629 -1.97683,5.48899 -18.88698,30.07839 -23.63272,34.36483 -2.35343,2.12566 -6.69546,4.97115 -9.64897,6.32331 -3.25281,1.48919 -5.37001,3.09345 -5.37001,4.06901 0,0.88579 2.17296,3.70498 4.82879,6.26486 5.01552,4.83432 10.41875,6.97799 17.58835,6.97799 4.36406,0 4.2092,0.28461 13.05824,-24 7.59938,-20.85512 13.47906,-32.97691 19.8469,-40.91718 l 4.34441,-5.41718 -16.35855,-38.08282 c -8.9972,-20.94555 -17.25794,-40.97749 -18.35721,-44.51543 -5.72659,-18.43075 -2.32218,-41.05316 8.69115,-57.7529 4.99693,-7.57694 18.26288,-20.92479 25.85792,-26.01755 30.45513,-20.42129 67.11184,-22.61513 100.11475,-5.99169 9.6045,4.83775 22.16969,14.46496 29.06157,22.26642 3.11773,3.52921 5.82144,6.2639 6.00824,6.0771 0.54144,-0.54144 -5.32162,-22.29443 -8.64821,-32.08636 -3.71203,-10.92649 -3.7618,-12.84661 -0.40149,-15.48983 3.22004,-2.53289 6.46166,-2.64626 9.22376,-0.32258 5.93458,4.99259 17.8537,51.72468 20.64623,80.94908 0.65664,6.8719 0.56864,7.31834 -1.93635,9.82333 -3.18265,3.18265 -2.90664,3.22816 -24.73912,-4.07952 l -16.0458,-5.37078 0.54617,3.21394 c 0.30039,1.76767 1.10334,8.24116 1.78434,14.38552 2.94801,26.59867 -4.21239,55.93376 -19.22733,78.77148 -6.64183,10.10224 -7.29631,10.16239 -23.57085,2.16656 -7.47154,-3.67084 -13.6977,-6.5472 -13.83592,-6.39193 -0.13823,0.15528 -2.8248,5.45732 -5.97016,11.78232 -3.14537,6.325 -6.65026,12.5125 -7.78865,13.75 -2.38769,2.59556 -5.56607,2.81616 -11.22118,0.77884 -9.67888,-3.48694 -17.96722,-1.41659 -25.62695,6.40136 -6.94048,7.08385 -10.62108,14.61389 -18.8629,38.59105 -13.31715,38.74239 -25.03047,55.88316 -42.97794,62.89207 -5.83413,2.27836 -20.13216,2.98926 -26.03221,1.29433 z m 23.58153,-16.48394 c 2.24484,-1.15086 6.6953,-4.91565 9.88991,-8.36621 l 5.80838,-6.27374 -6.38991,-1.59383 c -7.98756,-1.99232 -11.93242,-4.06616 -17.50427,-9.20211 L 256,464.74528 l -4.40059,4.05632 c -5.34612,4.92788 -10.87345,7.84936 -17.56638,9.28474 C 231.26486,478.68 229,479.60538 229,480.14272 c 0,0.53735 2.35637,3.46851 5.23637,6.51369 7.9651,8.42192 12.6977,10.45119 23.26363,9.97515 4.62147,-0.20822 8.38686,-1.02639 11.08153,-2.40785 z m -5.98576,-60.69631 c 6.27588,-1.86373 9.10171,-4.84529 19.29854,-20.36198 8.113,-12.34571 9.15389,-15.24725 6.98865,-19.48116 -2.8603,-5.59302 -3.1227,-5.63797 -33.05117,-5.66202 -15.21752,-0.0122 -28.39666,0.25729 -29.28699,0.59894 -2.04519,0.78481 -4.5448,5.54285 -4.5448,8.65108 0,2.7067 14.63904,26.55422 19.34598,31.51529 2.94431,3.10328 9.62319,5.98793 14.22252,6.1428 1.13767,0.0383 4.29995,-0.59302 7.02727,-1.40295 z M 368.5,372.17533 c 9.17822,-17.93075 8.22732,-17.60727 26.03692,-8.85724 7.48012,3.67505 13.92467,6.68191 14.32122,6.68191 1.24501,0 8.11278,-13.56696 10.72956,-21.19574 7.56838,-22.06443 8.18498,-43.67548 1.94765,-68.26375 -2.69978,-10.64284 -2.34416,-13.2345 2.14569,-15.6374 2.1991,-1.17692 4.09721,-0.77339 17.88954,3.80321 8.48618,2.8159 15.42942,4.81544 15.42942,4.4434 0,-1.83024 -8.15859,-12.40345 -15.3547,-19.89908 -13.22953,-13.78019 -27.79724,-22.41667 -44.54847,-26.41061 -7.06994,-1.68566 -10.72817,-1.96089 -20.59683,-1.54959 -6.6,0.27507 -13.656,1.0097 -15.68001,1.63252 l -3.68001,1.1324 -0.31999,15.37044 c -0.27977,13.43862 -0.55942,15.63462 -2.22498,17.47232 -2.48652,2.74352 -7.9013,2.79559 -10.59501,0.10188 -1.77778,-1.77778 -2,-3.33333 -2,-14 0,-6.6 -0.37943,-12 -0.84317,-12 -1.99355,0 -16.16755,10.93623 -22.25878,17.1742 -14.0188,14.35653 -19.71326,33.22515 -15.47051,51.26163 0.76796,3.2647 8.74843,23.14895 17.73437,44.18721 L 337.5,385.87442 345,385.35374 c 4.125,-0.28637 9.3,-0.10667 11.5,0.39934 2.2,0.50601 4.225,0.73497 4.5,0.5088 0.275,-0.22618 3.65,-6.56512 7.5,-14.08655 z M 172.9454,89.377888 c 3.54497,-1.339447 6.59313,-2.583081 6.77368,-2.76363 0.69329,-0.693295 -7.55806,-19.489608 -11.57516,-26.367825 -4.66752,-7.9919 -14.57969,-21.474239 -18.41896,-25.053105 l -2.47451,-2.306673 2.26946,9.387531 c 3.71356,15.360935 5.5419,27.468567 6.17663,40.902983 l 0.59896,12.67717 5.10225,-2.020546 c 2.80624,-1.1113 8.00268,-3.116457 11.54765,-4.455905 z M 436.34926,182.75 c -1.09965,-1.2375 -4.07124,-5.625 -6.60354,-9.75 -2.5323,-4.125 -7.87038,-11.55 -11.8624,-16.5 -8.20547,-10.17456 -8.05475,-9.48152 -5.43669,-25 2.31497,-13.72189 3.1872,-47.56148 1.58059,-61.321808 -2.37034,-20.301658 -9.97833,-44.73434 -16.04328,-51.522194 -2.26723,-2.537468 -3.4568,-3.023321 -7.55088,-3.083987 L 385.57337,15.5 381.25816,30.41948 c -8.16517,28.230326 -9.66532,37.456338 -9.77433,60.112562 -0.053,11.017628 -0.40773,20.535818 -0.78827,21.151538 -0.38054,0.61572 -1.99236,1.57284 -3.58184,2.12693 -2.51034,0.87511 -5.80147,-0.091 -25.05524,-7.35509 -24.75069,-9.337958 -35.4239,-11.698903 -59.96304,-13.264005 -12.20215,-0.778251 -13.5701,-1.059372 -15.25,-3.133962 -2.58765,-3.19561 -2.33141,-7.25228 0.63406,-10.038196 2.41442,-2.268232 2.81469,-2.312138 15.25,-1.672815 7.02378,0.361106 17.23129,1.330882 22.68337,2.155057 C 310.86495,81.325675 315.85636,82 316.50488,82 c 0.64853,0 2.44363,-3.2625 3.98911,-7.25 9.75221,-25.161772 26.26309,-47.935984 46.36756,-63.95688 12.93745,-10.30962814 19.916,-12.4532441 30.51278,-9.372677 10.77433,3.1321818 17.75913,12.743938 24.43518,33.625152 6.38973,19.985679 7.66288,29.679179 7.67738,58.454405 0.0102,20.18311 -0.3882,28.53097 -1.78063,37.31278 l -1.79373,11.31278 6.95211,9.18722 C 441.35024,162.5265 449,175.05647 449,177.74178 c 0,6.2434 -8.54659,9.62685 -12.65074,5.00822 z M 358.45071,62 c 0.90022,-5.225 2.68362,-13.91102 3.96311,-19.302266 l 2.32635,-9.802267 -2.46982,2.302267 c -3.8351,3.574924 -13.74909,17.060795 -18.41427,25.048699 -4.00758,6.861923 -12.26908,25.673901 -11.57834,26.364642 0.1788,0.178799 5.47695,2.273029 11.77368,4.653846 L 355.5,95.593679 356.15698,83.546839 C 356.51832,76.921078 357.5505,67.225 358.45071,62 Z"
       id="path1" />
  </g>
</svg>
