<?xml version="1.0" encoding="UTF-8" standalone="no"?>
<!-- Created with Inkscape (http://www.inkscape.org/) -->

<svg
   version="1.1"
   id="svg1"
   width="511.25052"
   height="507.79272"
   viewBox="0 0 511.25052 507.79272"
   xmlns="http://www.w3.org/2000/svg"
   xmlns:svg="http://www.w3.org/2000/svg">
  <defs
     id="defs1" />
  <g
     id="g1"
     transform="translate(-0.5286966,-2.0173247)">
    <path
       style="fill:#000000"
       d="m 227.5,509.32105 c -21.58975,-1.37508 -49.71831,-5.34936 -70.34058,-9.93842 -28.36756,-6.31261 -69.223589,-19.4214 -73.956743,-23.72927 -3.228208,-2.93815 -2.700933,-8.21242 1.103826,-11.04145 l 2.806502,-2.08678 10.693498,3.87455 c 52.071567,18.867 95.303687,27.11372 148.383017,28.30471 62.36855,1.39943 118.57346,-8.61553 174.6764,-31.12497 24.50794,-9.83299 71.38615,-31.57435 73.88408,-34.26624 2.61808,-2.82137 2.86321,-6.22668 0.74332,-10.32609 -1.78532,-3.45244 2.39548,-2.2149 -50.99332,-15.09433 l -41,-9.89078 -36.7222,-9.9e-4 -36.7222,-9.9e-4 -2.16715,5.03768 c -2.56546,5.96356 -9.12507,12.11742 -14.69529,13.7863 -5.50234,1.64854 -108.83735,1.66251 -114.33472,0.0155 C 191.90613,410.75648 183,401.04099 183,395.53984 183,394.1808 178.60243,394 145.54584,394 H 108.09168 L 64.564121,404.52437 C 40.623962,410.31277 20.33669,415.31731 19.481295,415.64555 17.502507,416.40488 15,421.19752 15,424.22783 c 0,1.27994 0.655118,3.26247 1.455818,4.40563 0.81869,1.16884 10.337418,6.14768 21.75,11.37649 11.1618,5.11392 21.306682,10.20718 22.544182,11.31835 3.216009,2.88773 3.033644,7.91013 -0.384859,10.59912 C 58.915969,463.06734 57.046146,464 56.209978,464 53.496761,464 11.960354,444.58602 8.398923,441.65327 2.9349411,437.15382 0.56442777,431.68536 0.5296993,423.5 0.50458416,417.58047 0.93799452,415.75485 3.3376283,411.6724 7.8193398,404.04776 12.415464,401.78988 34.104192,396.55808 44.496886,394.05114 61.55,389.93754 72,387.41675 l 19,-4.58325 -4.34e-4,-4.16675 c -2.39e-4,-2.29171 2.761547,-17.98273 6.137302,-34.86894 7.116762,-35.59948 8.345352,-38.73984 17.126002,-43.77555 2.88042,-1.65192 6.22307,-3.00771 7.42811,-3.01288 1.20504,-0.005 2.43182,-0.39906 2.72618,-0.87534 0.29436,-0.47628 2.1559,-20.38878 4.13675,-44.25 3.90247,-47.00875 4.16917,-48.3776 10.22831,-52.49747 1.70954,-1.16239 4.93289,-2.40521 7.16301,-2.76182 2.23012,-0.35661 4.06352,-0.98057 4.07421,-1.38657 0.0107,-0.406 0.65017,-5.19015 1.42106,-10.63146 1.03449,-7.30193 1.9316,-10.42326 3.425,-11.91666 2.79503,-2.79504 7.92386,-2.66841 10.29033,0.25406 2.06097,2.54518 2.23599,5.56653 0.86997,15.01845 -0.51369,3.55442 -0.77533,6.62123 -0.58142,6.81514 0.39906,0.39906 166.90474,-11.65065 170.16122,-12.31425 2.04244,-0.41621 1.81016,-1.6222 -7.74189,-40.19627 -5.41613,-21.87195 -10.31432,-40.90466 -10.88486,-42.294909 -0.57054,-1.390246 -1.94554,-3.094897 -3.05556,-3.788113 -2.25096,-1.405747 -126.29548,-15.518203 -128.96193,-14.671905 -0.90476,0.287161 -2.65857,1.600979 -3.89734,2.919594 -2.01432,2.144147 -2.65117,5.543189 -6.02688,32.167293 -3.45293,27.23311 -3.96561,29.92451 -6.01663,31.58533 C 164.29686,152.00945 157,149.09413 157,143.3819 c 0,-1.43995 1.58748,-15.27745 3.52774,-30.75 2.95712,-23.581565 3.93982,-28.981712 6.07544,-33.385762 2.94371,-6.070525 8.62346,-10.519001 15.70823,-12.302967 4.16133,-1.047834 6.90446,-3.496478 28.90333,-25.80044 16.5281,-16.757313 26.13312,-25.716172 30.01667,-27.997344 12.22263,-7.1794965 25.68302,-11.0967438 38.23797,-11.1280234 9.43861,-0.023516 94.68629,10.6361894 101.34769,12.6729144 6.41903,1.962619 12.83162,6.071577 17.44521,11.178273 3.71627,4.113466 39.58302,63.266825 42.87965,70.719412 3.95459,8.939997 3.59328,15.548657 -3.02948,55.412037 -3.33519,20.075 -6.79333,38.92737 -7.68476,41.89416 C 427.38194,204.03084 416.40025,212 405.47743,212 c -8.14895,0 -16.59554,-4.41944 -21.56931,-11.28553 -3.86654,-5.33761 -4.29959,-7.25738 -7.90222,-35.03221 -2.96495,-22.85851 -3.31519,-24.44187 -8.69657,-39.31535 -4.47729,-12.37471 -5.85169,-15.23256 -6.82054,-14.18226 -0.66734,0.72344 -4.92956,7.1031 -9.47159,14.17702 l -8.25825,12.86168 1.6627,7.63832 c 4.31579,19.82645 8.25384,33.64148 9.64057,33.82003 9.06162,1.16673 13.52474,3.68509 16.4063,9.25743 0.76818,1.4855 4.58473,25.16939 8.48122,52.63089 3.89649,27.46149 7.29571,50.88399 7.55382,52.05 0.3476,1.57025 1.4897,2.28319 4.40411,2.74923 5.04547,0.8068 11.95719,6.07592 14.86457,11.33194 2.65222,4.79474 15.61353,67.18512 14.82862,71.37887 l -0.48288,2.58006 36.69101,8.771 c 20.18005,4.82405 39.05725,9.88545 41.94932,11.24755 15.01778,7.07306 17.62843,28.43838 4.77002,39.03736 -3.80031,3.13254 -60.00552,29.05601 -80.52833,37.14199 -41.05404,16.17529 -86.82447,26.46133 -133.94989,30.10271 -12.17529,0.94078 -49.04736,1.15663 -61.55011,0.36032 z M 312.07692,396.07692 315,393.15385 v -46.0002 -46.0002 L 312.41111,298.07673 309.82221,295 H 256 202.17779 l -2.5889,3.07673 L 197,301.15345 v 46.0002 46.0002 l 2.92308,2.92307 L 202.84615,399 H 256 309.15385 Z M 223.98477,378.75 C 215.96147,374.68323 215.5,372.95643 215.5,347 c 0,-25.00397 0.34827,-26.61586 6.73491,-31.17116 C 225.48225,313.51266 225.66579,313.5 256,313.5 c 30.33421,0 30.51775,0.0127 33.76509,2.32884 6.38664,4.5553 6.73491,6.16719 6.73491,31.17116 0,25.95643 -0.46147,27.68323 -8.48477,31.75 -4.28438,2.17162 -5.3996,2.25 -32.01523,2.25 -26.61563,0 -27.73085,-0.0784 -32.01523,-2.25 z M 282,347 v -19 h -26 -26 v 19 19 h 26 26 z m -100,23 v -9 h -14.04545 c -13.57913,0 -14.12695,-0.0815 -16.5,-2.45455 C 150.10455,357.19545 149,354.925 149,353.5 c 0,-1.425 1.10455,-3.69545 2.45455,-5.04545 2.37305,-2.37306 2.92087,-2.45455 16.5,-2.45455 H 182 v -17.54267 -17.54266 l -29.47871,0.29266 -29.47871,0.29267 -2.64351,2.64494 c -2.373,2.37429 -3.24495,5.64448 -8.52128,31.9586 C 108.645,362.22605 106,376.22333 106,377.2086 106,378.89904 108.14163,379 144,379 h 38 z m 224,8.7028 c 0,-0.87312 -12.10178,-60.44812 -12.59448,-62.00048 -0.32125,-1.01217 -2.00641,-2.70758 -3.74481,-3.76758 -2.92361,-1.78269 -5.27989,-1.92754 -31.41071,-1.931 L 330,311 v 17.5 17.5 h 14.04545 c 13.57913,0 14.12695,0.0815 16.5,2.45455 1.35,1.35 2.45455,3.62045 2.45455,5.04545 0,1.425 -1.10455,3.69545 -2.45455,5.04545 -2.37305,2.37306 -2.92087,2.45455 -16.5,2.45455 H 330 v 9 9 h 38 c 20.9,0 38,-0.13374 38,-0.2972 z M 184.84518,292.98763 c 1.84349,-4.16472 6.83969,-8.93928 11.63263,-11.11655 3.74069,-1.69928 7.9065,-1.82716 59.52219,-1.82716 51.61569,0 55.7815,0.12788 59.52219,1.82716 4.79294,2.17727 9.78914,6.95183 11.63263,11.11655 L 328.48822,296 h 21.57491 21.5749 l -7.06902,-49.42135 c -3.88795,-27.18174 -7.33831,-49.68854 -7.66746,-50.01511 -0.7946,-0.78839 -208.16964,14.50818 -209.20784,15.43176 -0.58252,0.51821 -7.6726,77.26432 -7.69136,83.2547 -0.001,0.4125 9.7878,0.75 21.75354,0.75 h 21.75589 z m 226.73451,-97.8731 c 1.69383,-1.03289 3.59804,-3.16871 4.23158,-4.74626 0.63353,-1.57755 3.89776,-19.29327 7.25382,-39.36827 4.51008,-26.97793 5.97227,-38.02418 5.60487,-42.34248 -0.46451,-5.45975 -1.74804,-7.92844 -19.59293,-37.684463 -10.50272,-17.513089 -20.27524,-33.243595 -21.7167,-34.956681 -5.77405,-6.862069 -8.18463,-7.435225 -56.9902,-13.550395 -49.66888,-6.223339 -57.53869,-6.504964 -69.09291,-2.472519 -10.46602,3.65266 -17.29138,8.995623 -36.66769,28.703851 -17.82783,18.133219 -18.39031,18.828253 -15.79778,19.520734 1.47854,0.394925 25.86325,3.231369 54.18825,6.303209 48.12334,5.218966 51.85215,5.761981 56.87085,8.281954 7.85385,3.943538 10.477,8.238416 14.47309,23.69679 l 3.36059,13 6.8044,-10.5 c 3.74241,-5.775 10.14535,-15.675 14.22875,-22 4.0834,-6.325 8.14891,-12.0625 9.03447,-12.75 2.41672,-1.876206 6.97187,-1.505983 9.22785,0.75 3.01233,3.012332 2.49168,7.330816 -1.66354,13.798037 L 371.67292,94.5 l 3.26571,9 c 12.50127,34.45243 12.7777,35.50853 16.05865,61.35302 2.05508,16.18812 3.62766,25.17112 4.69044,26.79313 3.44056,5.25095 10.45742,6.78237 15.89197,3.46838 z"
       id="path1" />
  </g>
</svg>
