<?xml version="1.0" encoding="UTF-8" standalone="no"?>
<!-- Created with Inkscape (http://www.inkscape.org/) -->

<svg
   version="1.1"
   id="svg1"
   width="511.82336"
   height="511.50806"
   viewBox="0 0 511.82336 511.50806"
   xmlns="http://www.w3.org/2000/svg"
   xmlns:svg="http://www.w3.org/2000/svg">
  <defs
     id="defs1" />
  <g
     id="g1"
     transform="translate(0,-0.01455422)">
    <path
       style="fill:#ffffff"
       d="m 225.5,511.0307 c -36.16175,-2.73063 -83.23144,-16.8 -116.15651,-34.71977 C 96.594687,469.37228 83.769163,459.79028 67.152243,444.78969 42.100742,422.17496 30.977368,406.99941 12.699377,370.5 8.5679829,362.25 4.1330076,352.44767 2.8438759,348.71704 0.7971999,342.79415 0.69019772,341.81001 2,340.95558 3.4171725,340.0311 15.690006,336.07591 33.436609,330.82442 l 7.93661,-2.34856 -6.662741,-5.23604 C 22.881003,313.9434 7.235499,293.3645 9.9405901,290.65941 10.570181,290.02982 17.14737,289.27088 25.271612,288.89037 45.772674,287.93019 58.544001,285.23459 70,279.44971 c 8.658084,-4.37203 9.819792,-6.4107 12.486659,-21.91269 1.539695,-8.94995 1.538646,-8.96623 -0.722362,-11.2065 C 80.518934,245.09657 72.3,240.31522 63.5,235.70529 43.996231,225.48814 38.719053,222.1404 26.22684,212.05995 16.203078,203.97138 0,188.01895 0,186.23882 c 0,-1.63554 3.2492147,-2.10521 29.5,-4.26415 40.000887,-3.28981 59.178233,-7.16675 90.61669,-18.31934 28.85751,-10.23701 31.14033,-11.53903 48.38331,-27.5956 28.39347,-26.43986 46.47151,-38.645054 63.31506,-42.746482 9.83786,-2.395532 26.51926,-2.17602 37.39156,0.49204 12.61138,3.09483 11.37235,3.677382 52.29338,-24.586696 27.46759,-18.971816 52.33148,-37.679979 66,-49.659924 18.21086,-15.9611377 24.94167,-19.57416159 36.40893,-19.5439262 10.35028,0.02729026 10.92111,0.75948719 18.59148,23.8468432 5.1402,15.471699 5.08592,14.826162 2.85423,33.93993 -0.61201,5.24167 -0.54923,5.402362 5.56176,14.235418 3.39942,4.913648 7.29892,11.462268 8.66557,14.55249 C 462.13411,92.360263 463.8797,101 462.49352,101 c -0.42808,0 -4.80812,-1.593538 -9.73342,-3.541196 -4.9253,-1.947658 -10.59872,-3.635158 -12.6076,-3.75 L 436.5,93.5 436.5793,98 c 0.0436,2.475 0.75816,8.6625 1.58789,13.75 0.82972,5.0875 1.33534,9.25 1.12359,9.25 -0.21174,0 -3.66468,-1.8 -7.67319,-4 -4.00852,-2.2 -8.01442,-4 -8.90201,-4 -0.88759,0 -2.81573,1.57581 -4.28475,3.5018 -2.87021,3.76304 -2.84228,3.06952 -0.83578,20.7482 0.39841,3.51028 0.2733,5.75 -0.32118,5.75 -0.53559,0 -2.79573,-1.31981 -5.02255,-2.93291 -2.22682,-1.61309 -4.86174,-3.07559 -5.85538,-3.25 C 400.68801,135.81525 386,172.63641 386,187.94741 c 0,8.80828 4.30594,10.84429 20.37235,9.63281 10.68066,-0.80538 34.36883,-4.79904 40.12765,-6.76524 l 4,-1.36571 -0.20049,-7.22463 C 450.18062,177.94051 450.50609,175 451.09917,175 c 1.89507,0 7.4154,3.22801 13.22669,7.73431 5.06336,3.92632 6.1301,4.37897 8.1504,3.45846 4.22328,-1.92426 5.53325,-10.83217 2.93272,-19.94277 -1.77442,-6.21643 10.63854,2.65683 16.98719,12.14309 3.28419,4.9073 4.88226,6.26415 10.17424,8.6385 3.50075,1.57068 6.81428,3.81869 7.49016,5.08158 2.09348,3.9117 2.39045,18.58874 0.52346,25.87049 -2.44801,9.54785 -15.42918,32.98586 -23.09284,41.69502 l -4.14902,4.71503 -6.92108,-2.28296 c -14.01813,-4.62395 -29.17531,-3.57188 -42.1826,2.92794 -14.08216,7.03694 -67.36326,53.97393 -77.67847,68.4294 -6.52641,9.14595 -22.92406,24.23138 -32.49786,29.89721 -9.57126,5.66434 -9.38367,4.11007 -2.45412,20.33375 14.39149,33.6938 27.30587,51.5599 41.84956,57.89582 3.59832,1.5676 6.54153,3.08754 6.54047,3.37765 -0.003,0.88986 -9.16081,6.72639 -15.49807,9.87765 -7.13361,3.54726 -14.78858,5.7875 -23,6.731 -3.3,0.37917 -6.30364,1.1628 -6.67476,1.7414 -0.96419,1.50322 2.29311,9.52592 6.20039,15.2715 4.99179,7.34033 14.97674,16.59555 21.86479,20.26684 3.36027,1.79101 6.10958,3.63596 6.10958,4.09991 0,2.2358 -17.20843,5.15401 -41.5,7.03756 -17.7085,1.37311 -78.45947,2.05478 -92,1.03232 z m 35.34497,-342.53868 c 6.54646,-1.99139 13.68576,-8.24187 16.41319,-14.3698 1.12932,-2.53733 2.17773,-7.72247 2.49378,-12.33356 l 0.5453,-7.95578 -4.89862,0.67801 c -16.05506,2.22216 -24.98895,5.80484 -33.58759,13.46936 -8.14183,7.25732 -14.40674,21.11434 -10.12181,22.38788 3.51381,1.04436 23.85877,-0.2648 29.15575,-1.87611 z"
       id="path1" />
  </g>
</svg>
